<svg width="325" height="474" viewBox="0 0 325 474" fill="none" xmlns="http://www.w3.org/2000/svg">
<rect width="325" height="474" rx="16" fill="url(#paint0_linear_1005_3659)"/>
<path d="M54.0287 94.488C54.0287 94.408 54.0527 94.344 54.1007 94.296C54.1647 94.232 54.2367 94.2 54.3167 94.2H57.1247C57.2047 94.2 57.2687 94.232 57.3167 94.296C57.3807 94.344 57.4127 94.408 57.4127 94.488V110.712C57.4127 110.792 57.3807 110.864 57.3167 110.928C57.2687 110.976 57.2047 111 57.1247 111H54.3167C54.2367 111 54.1647 110.976 54.1007 110.928C54.0527 110.864 54.0287 110.792 54.0287 110.712V104.088C54.0287 104.008 53.9887 103.968 53.9087 103.968H48.6047C48.5247 103.968 48.4847 104.008 48.4847 104.088V110.712C48.4847 110.792 48.4527 110.864 48.3887 110.928C48.3407 110.976 48.2767 111 48.1967 111H45.3887C45.3087 111 45.2367 110.976 45.1727 110.928C45.1247 110.864 45.1007 110.792 45.1007 110.712V94.488C45.1007 94.408 45.1247 94.344 45.1727 94.296C45.2367 94.232 45.3087 94.2 45.3887 94.2H48.1967C48.2767 94.2 48.3407 94.232 48.3887 94.296C48.4527 94.344 48.4847 94.408 48.4847 94.488V100.944C48.4847 101.024 48.5247 101.064 48.6047 101.064H53.9087C53.9887 101.064 54.0287 101.024 54.0287 100.944V94.488ZM70.875 103.56C70.971 104.168 71.003 104.848 70.971 105.6C70.955 105.792 70.851 105.888 70.659 105.888H63.243C63.147 105.888 63.115 105.928 63.147 106.008C63.195 106.328 63.283 106.648 63.411 106.968C63.827 107.864 64.675 108.312 65.955 108.312C66.979 108.296 67.787 107.88 68.379 107.064C68.443 106.968 68.515 106.92 68.595 106.92C68.643 106.92 68.699 106.952 68.763 107.016L70.491 108.72C70.571 108.8 70.611 108.872 70.611 108.936C70.611 108.968 70.579 109.032 70.515 109.128C69.987 109.784 69.307 110.296 68.475 110.664C67.643 111.016 66.731 111.192 65.739 111.192C64.363 111.192 63.195 110.88 62.235 110.256C61.291 109.632 60.611 108.76 60.195 107.64C59.859 106.84 59.691 105.792 59.691 104.496C59.691 103.616 59.811 102.84 60.051 102.168C60.419 101.032 61.059 100.128 61.971 99.456C62.899 98.784 63.995 98.448 65.259 98.448C66.859 98.448 68.139 98.912 69.099 99.84C70.075 100.768 70.667 102.008 70.875 103.56ZM65.283 101.376C64.275 101.376 63.611 101.848 63.291 102.792C63.227 103 63.171 103.256 63.123 103.56C63.123 103.64 63.163 103.68 63.243 103.68H67.395C67.491 103.68 67.523 103.64 67.491 103.56C67.411 103.096 67.371 102.872 67.371 102.888C67.227 102.408 66.971 102.04 66.603 101.784C66.251 101.512 65.811 101.376 65.283 101.376ZM65.571 116.4C65.043 116.4 64.611 116.224 64.275 115.872C63.939 115.536 63.771 115.112 63.771 114.6C63.771 114.056 63.939 113.616 64.275 113.28C64.611 112.96 65.043 112.8 65.571 112.8C66.099 112.8 66.531 112.96 66.867 113.28C67.203 113.616 67.371 114.056 67.371 114.6C67.371 115.112 67.195 115.536 66.843 115.872C66.507 116.224 66.083 116.4 65.571 116.4ZM61.683 97.272C61.571 97.272 61.491 97.24 61.443 97.176C61.411 97.096 61.427 97.008 61.491 96.912L63.243 94.392C63.323 94.264 63.435 94.2 63.579 94.2H66.771C66.915 94.2 67.027 94.264 67.107 94.392L68.931 96.912C68.979 96.976 69.003 97.032 69.003 97.08C69.003 97.208 68.915 97.272 68.739 97.272H66.579C66.435 97.272 66.323 97.208 66.243 97.08L65.283 95.616C65.235 95.52 65.187 95.52 65.139 95.616L64.179 97.08C64.099 97.208 63.987 97.272 63.843 97.272H61.683ZM82.7344 111.168C81.6624 111.168 80.7264 111.016 79.9264 110.712C79.1264 110.408 78.5024 109.984 78.0544 109.44C77.6224 108.896 77.4064 108.28 77.4064 107.592V107.352C77.4064 107.272 77.4304 107.208 77.4784 107.16C77.5424 107.096 77.6144 107.064 77.6944 107.064H80.3584C80.4384 107.064 80.5024 107.096 80.5504 107.16C80.6144 107.208 80.6464 107.272 80.6464 107.352V107.376C80.6464 107.728 80.8384 108.032 81.2224 108.288C81.6224 108.528 82.1184 108.648 82.7104 108.648C83.2544 108.648 83.6944 108.544 84.0304 108.336C84.3664 108.112 84.5344 107.84 84.5344 107.52C84.5344 107.232 84.3904 107.016 84.1024 106.872C83.8144 106.728 83.3424 106.576 82.6864 106.416C81.9344 106.224 81.3424 106.04 80.9104 105.864C79.8864 105.512 79.0704 105.08 78.4624 104.568C77.8544 104.056 77.5504 103.32 77.5504 102.36C77.5504 101.176 78.0064 100.24 78.9184 99.552C79.8464 98.848 81.0704 98.496 82.5904 98.496C83.6144 98.496 84.5104 98.664 85.2784 99C86.0464 99.32 86.6384 99.776 87.0544 100.368C87.4864 100.96 87.7024 101.632 87.7024 102.384C87.7024 102.464 87.6704 102.536 87.6064 102.6C87.5584 102.648 87.4944 102.672 87.4144 102.672H84.8464C84.7664 102.672 84.6944 102.648 84.6304 102.6C84.5824 102.536 84.5584 102.464 84.5584 102.384C84.5584 102.032 84.3744 101.736 84.0064 101.496C83.6544 101.256 83.1824 101.136 82.5904 101.136C82.0624 101.136 81.6304 101.232 81.2944 101.424C80.9584 101.616 80.7904 101.88 80.7904 102.216C80.7904 102.536 80.9504 102.776 81.2704 102.936C81.6064 103.096 82.1584 103.264 82.9264 103.44C83.1024 103.488 83.3024 103.544 83.5264 103.608C83.7504 103.656 83.9904 103.72 84.2464 103.8C85.3824 104.136 86.2784 104.568 86.9344 105.096C87.5904 105.624 87.9184 106.392 87.9184 107.4C87.9184 108.584 87.4464 109.512 86.5024 110.184C85.5744 110.84 84.3184 111.168 82.7344 111.168ZM91.6853 97.272C91.1413 97.272 90.6853 97.096 90.3173 96.744C89.9653 96.376 89.7893 95.92 89.7893 95.376C89.7893 94.816 89.9653 94.36 90.3173 94.008C90.6693 93.656 91.1253 93.48 91.6853 93.48C92.2453 93.48 92.7013 93.656 93.0533 94.008C93.4053 94.36 93.5813 94.816 93.5813 95.376C93.5813 95.92 93.3973 96.376 93.0293 96.744C92.6773 97.096 92.2293 97.272 91.6853 97.272ZM90.2453 111C90.1653 111 90.0933 110.976 90.0293 110.928C89.9813 110.864 89.9573 110.792 89.9573 110.712V98.928C89.9573 98.848 89.9813 98.784 90.0293 98.736C90.0933 98.672 90.1653 98.64 90.2453 98.64H93.0533C93.1333 98.64 93.1973 98.672 93.2453 98.736C93.3093 98.784 93.3413 98.848 93.3413 98.928V110.712C93.3413 110.792 93.3093 110.864 93.2453 110.928C93.1973 110.976 93.1333 111 93.0533 111H90.2453ZM102.41 98.472C103.69 98.472 104.722 98.864 105.506 99.648C106.29 100.432 106.682 101.496 106.682 102.84V110.712C106.682 110.792 106.65 110.864 106.586 110.928C106.538 110.976 106.474 111 106.394 111H103.586C103.506 111 103.434 110.976 103.37 110.928C103.322 110.864 103.298 110.792 103.298 110.712V103.536C103.298 102.896 103.114 102.376 102.746 101.976C102.394 101.576 101.922 101.376 101.33 101.376C100.738 101.376 100.258 101.576 99.8905 101.976C99.5385 102.376 99.3625 102.896 99.3625 103.536V110.712C99.3625 110.792 99.3305 110.864 99.2665 110.928C99.2185 110.976 99.1545 111 99.0745 111H96.2665C96.1865 111 96.1145 110.976 96.0505 110.928C96.0025 110.864 95.9785 110.792 95.9785 110.712V98.952C95.9785 98.872 96.0025 98.808 96.0505 98.76C96.1145 98.696 96.1865 98.664 96.2665 98.664H99.0745C99.1545 98.664 99.2185 98.696 99.2665 98.76C99.3305 98.808 99.3625 98.872 99.3625 98.952V99.792C99.3625 99.84 99.3785 99.872 99.4105 99.888C99.4425 99.904 99.4665 99.896 99.4825 99.864C100.138 98.936 101.114 98.472 102.41 98.472ZM115.512 98.472C116.792 98.472 117.824 98.864 118.608 99.648C119.392 100.432 119.784 101.496 119.784 102.84V110.712C119.784 110.792 119.752 110.864 119.688 110.928C119.64 110.976 119.576 111 119.496 111H116.688C116.608 111 116.536 110.976 116.472 110.928C116.424 110.864 116.4 110.792 116.4 110.712V103.536C116.4 102.896 116.216 102.376 115.848 101.976C115.496 101.576 115.024 101.376 114.432 101.376C113.84 101.376 113.36 101.576 112.992 101.976C112.64 102.376 112.464 102.896 112.464 103.536V110.712C112.464 110.792 112.432 110.864 112.368 110.928C112.32 110.976 112.256 111 112.176 111H109.368C109.288 111 109.216 110.976 109.152 110.928C109.104 110.864 109.08 110.792 109.08 110.712V94.488C109.08 94.408 109.104 94.344 109.152 94.296C109.216 94.232 109.288 94.2 109.368 94.2H112.176C112.256 94.2 112.32 94.232 112.368 94.296C112.432 94.344 112.464 94.408 112.464 94.488V99.792C112.464 99.84 112.48 99.872 112.512 99.888C112.544 99.904 112.568 99.896 112.584 99.864C113.24 98.936 114.216 98.472 115.512 98.472ZM134.09 101.088C134.09 101.168 134.058 101.24 133.994 101.304C133.946 101.352 133.882 101.376 133.802 101.376H131.498C131.418 101.376 131.378 101.416 131.378 101.496V106.584C131.378 107.112 131.482 107.504 131.69 107.76C131.914 108.016 132.266 108.144 132.746 108.144H133.538C133.618 108.144 133.682 108.176 133.73 108.24C133.794 108.288 133.826 108.352 133.826 108.432V110.712C133.826 110.888 133.73 110.992 133.538 111.024C132.866 111.056 132.386 111.072 132.098 111.072C130.77 111.072 129.778 110.856 129.122 110.424C128.466 109.976 128.13 109.144 128.114 107.928V101.496C128.114 101.416 128.074 101.376 127.994 101.376H126.626C126.546 101.376 126.474 101.352 126.41 101.304C126.362 101.24 126.338 101.168 126.338 101.088V98.952C126.338 98.872 126.362 98.808 126.41 98.76C126.474 98.696 126.546 98.664 126.626 98.664H127.994C128.074 98.664 128.114 98.624 128.114 98.544V95.688C128.114 95.608 128.138 95.544 128.186 95.496C128.25 95.432 128.322 95.4 128.402 95.4H131.09C131.17 95.4 131.234 95.432 131.282 95.496C131.346 95.544 131.378 95.608 131.378 95.688V98.544C131.378 98.624 131.418 98.664 131.498 98.664H133.802C133.882 98.664 133.946 98.696 133.994 98.76C134.058 98.808 134.09 98.872 134.09 98.952V101.088ZM142.559 98.472C143.839 98.472 144.871 98.864 145.655 99.648C146.439 100.432 146.831 101.496 146.831 102.84V110.712C146.831 110.792 146.799 110.864 146.735 110.928C146.687 110.976 146.623 111 146.543 111H143.735C143.655 111 143.583 110.976 143.519 110.928C143.471 110.864 143.447 110.792 143.447 110.712V103.536C143.447 102.896 143.263 102.376 142.895 101.976C142.543 101.576 142.071 101.376 141.479 101.376C140.887 101.376 140.407 101.576 140.039 101.976C139.687 102.376 139.511 102.896 139.511 103.536V110.712C139.511 110.792 139.479 110.864 139.415 110.928C139.367 110.976 139.303 111 139.223 111H136.415C136.335 111 136.263 110.976 136.199 110.928C136.151 110.864 136.127 110.792 136.127 110.712V94.488C136.127 94.408 136.151 94.344 136.199 94.296C136.263 94.232 136.335 94.2 136.415 94.2H139.223C139.303 94.2 139.367 94.232 139.415 94.296C139.479 94.344 139.511 94.408 139.511 94.488V99.792C139.511 99.84 139.527 99.872 139.559 99.888C139.591 99.904 139.615 99.896 139.631 99.864C140.287 98.936 141.263 98.472 142.559 98.472ZM154.172 98.472C155.212 98.472 156.14 98.656 156.956 99.024C157.772 99.376 158.404 99.864 158.852 100.488C159.316 101.112 159.548 101.808 159.548 102.576V110.712C159.548 110.792 159.516 110.864 159.452 110.928C159.404 110.976 159.34 111 159.26 111H156.452C156.372 111 156.3 110.976 156.236 110.928C156.188 110.864 156.164 110.792 156.164 110.712V109.92C156.164 109.872 156.148 109.84 156.116 109.824C156.084 109.808 156.052 109.824 156.02 109.872C155.348 110.752 154.268 111.192 152.78 111.192C151.532 111.192 150.524 110.888 149.756 110.28C148.988 109.672 148.604 108.776 148.604 107.592C148.604 106.36 149.036 105.408 149.9 104.736C150.764 104.048 151.996 103.704 153.596 103.704H156.044C156.124 103.704 156.164 103.664 156.164 103.584V103.056C156.164 102.528 156.004 102.12 155.684 101.832C155.364 101.528 154.884 101.376 154.244 101.376C153.748 101.376 153.332 101.464 152.996 101.64C152.676 101.816 152.468 102.064 152.372 102.384C152.324 102.56 152.22 102.64 152.06 102.624L149.156 102.24C148.964 102.208 148.876 102.136 148.892 102.024C148.956 101.352 149.22 100.744 149.684 100.2C150.164 99.656 150.788 99.232 151.556 98.928C152.34 98.624 153.212 98.472 154.172 98.472ZM153.692 108.672C154.38 108.672 154.964 108.488 155.444 108.12C155.924 107.752 156.164 107.28 156.164 106.704V105.84C156.164 105.76 156.124 105.72 156.044 105.72H154.316C153.596 105.72 153.028 105.856 152.612 106.128C152.212 106.4 152.012 106.784 152.012 107.28C152.012 107.712 152.164 108.056 152.468 108.312C152.772 108.552 153.18 108.672 153.692 108.672ZM153.02 97.176C152.908 97.176 152.836 97.144 152.804 97.08C152.772 97.016 152.78 96.936 152.828 96.84L154.1 94.416C154.164 94.272 154.284 94.2 154.46 94.2H156.884C156.996 94.2 157.068 94.24 157.1 94.32C157.148 94.384 157.14 94.464 157.076 94.56L155.372 96.984C155.292 97.112 155.18 97.176 155.036 97.176H153.02ZM163.756 97.272C163.212 97.272 162.756 97.096 162.388 96.744C162.036 96.376 161.86 95.92 161.86 95.376C161.86 94.816 162.036 94.36 162.388 94.008C162.74 93.656 163.196 93.48 163.756 93.48C164.316 93.48 164.772 93.656 165.124 94.008C165.476 94.36 165.652 94.816 165.652 95.376C165.652 95.92 165.468 96.376 165.1 96.744C164.748 97.096 164.3 97.272 163.756 97.272ZM162.316 111C162.236 111 162.164 110.976 162.1 110.928C162.052 110.864 162.028 110.792 162.028 110.712V98.928C162.028 98.848 162.052 98.784 162.1 98.736C162.164 98.672 162.236 98.64 162.316 98.64H165.124C165.204 98.64 165.268 98.672 165.316 98.736C165.38 98.784 165.412 98.848 165.412 98.928V110.712C165.412 110.792 165.38 110.864 165.316 110.928C165.268 110.976 165.204 111 165.124 111H162.316ZM178.277 111.192C176.997 111.192 175.885 110.872 174.941 110.232C174.013 109.592 173.349 108.712 172.949 107.592C172.677 106.792 172.541 105.848 172.541 104.76C172.541 103.688 172.677 102.76 172.949 101.976C173.333 100.888 173.997 100.032 174.941 99.408C175.885 98.784 176.997 98.472 178.277 98.472C179.557 98.472 180.677 98.792 181.637 99.432C182.613 100.072 183.261 100.88 183.581 101.856C183.709 102.24 183.773 102.528 183.773 102.72V102.768C183.773 102.912 183.693 103 183.533 103.032L180.773 103.44H180.725C180.581 103.44 180.485 103.36 180.437 103.2L180.365 102.816C180.253 102.4 180.005 102.056 179.621 101.784C179.237 101.512 178.781 101.376 178.253 101.376C177.741 101.376 177.309 101.504 176.957 101.76C176.605 102.016 176.357 102.368 176.213 102.816C176.037 103.296 175.949 103.952 175.949 104.784C175.949 105.616 176.029 106.272 176.189 106.752C176.333 107.232 176.581 107.608 176.933 107.88C177.301 108.152 177.741 108.288 178.253 108.288C178.749 108.288 179.181 108.16 179.549 107.904C179.933 107.632 180.197 107.264 180.341 106.8C180.357 106.768 180.365 106.72 180.365 106.656C180.381 106.64 180.389 106.616 180.389 106.584C180.405 106.392 180.517 106.312 180.725 106.344L183.485 106.776C183.645 106.808 183.725 106.896 183.725 107.04C183.725 107.168 183.677 107.408 183.581 107.76C183.245 108.832 182.589 109.672 181.613 110.28C180.653 110.888 179.541 111.192 178.277 111.192ZM191.051 111.192C189.707 111.192 188.555 110.84 187.595 110.136C186.635 109.432 185.979 108.472 185.627 107.256C185.403 106.504 185.291 105.688 185.291 104.808C185.291 103.864 185.403 103.016 185.627 102.264C185.995 101.08 186.659 100.152 187.619 99.48C188.579 98.808 189.731 98.472 191.075 98.472C192.387 98.472 193.507 98.808 194.435 99.48C195.363 100.136 196.019 101.056 196.403 102.24C196.659 103.04 196.787 103.88 196.787 104.76C196.787 105.624 196.675 106.432 196.451 107.184C196.099 108.432 195.443 109.416 194.483 110.136C193.539 110.84 192.395 111.192 191.051 111.192ZM191.051 108.288C191.579 108.288 192.027 108.128 192.395 107.808C192.763 107.488 193.027 107.048 193.187 106.488C193.315 105.976 193.379 105.416 193.379 104.808C193.379 104.136 193.315 103.568 193.187 103.104C193.011 102.56 192.739 102.136 192.371 101.832C192.003 101.528 191.555 101.376 191.027 101.376C190.483 101.376 190.027 101.528 189.659 101.832C189.307 102.136 189.051 102.56 188.891 103.104C188.763 103.488 188.699 104.056 188.699 104.808C188.699 105.528 188.755 106.088 188.867 106.488C189.027 107.048 189.291 107.488 189.659 107.808C190.043 108.128 190.507 108.288 191.051 108.288ZM187.403 97.272C187.291 97.272 187.211 97.24 187.163 97.176C187.131 97.096 187.147 97.008 187.211 96.912L188.963 94.392C189.043 94.264 189.155 94.2 189.299 94.2H192.491C192.635 94.2 192.747 94.264 192.827 94.392L194.651 96.912C194.699 96.976 194.723 97.032 194.723 97.08C194.723 97.208 194.635 97.272 194.459 97.272H192.299C192.155 97.272 192.043 97.208 191.963 97.08L191.003 95.616C190.955 95.52 190.907 95.52 190.859 95.616L189.899 97.08C189.819 97.208 189.707 97.272 189.563 97.272H187.403ZM205.207 98.472C206.487 98.472 207.519 98.864 208.303 99.648C209.087 100.432 209.479 101.496 209.479 102.84V110.712C209.479 110.792 209.447 110.864 209.383 110.928C209.335 110.976 209.271 111 209.191 111H206.383C206.303 111 206.231 110.976 206.167 110.928C206.119 110.864 206.095 110.792 206.095 110.712V103.536C206.095 102.896 205.911 102.376 205.543 101.976C205.191 101.576 204.719 101.376 204.127 101.376C203.535 101.376 203.055 101.576 202.687 101.976C202.335 102.376 202.159 102.896 202.159 103.536V110.712C202.159 110.792 202.127 110.864 202.063 110.928C202.015 110.976 201.951 111 201.871 111H199.063C198.983 111 198.911 110.976 198.847 110.928C198.799 110.864 198.775 110.792 198.775 110.712V98.952C198.775 98.872 198.799 98.808 198.847 98.76C198.911 98.696 198.983 98.664 199.063 98.664H201.871C201.951 98.664 202.015 98.696 202.063 98.76C202.127 98.808 202.159 98.872 202.159 98.952V99.792C202.159 99.84 202.175 99.872 202.207 99.888C202.239 99.904 202.263 99.896 202.279 99.864C202.935 98.936 203.911 98.472 205.207 98.472ZM219.436 98.952C219.436 98.872 219.46 98.808 219.508 98.76C219.572 98.696 219.644 98.664 219.724 98.664H222.532C222.612 98.664 222.676 98.696 222.724 98.76C222.788 98.808 222.82 98.872 222.82 98.952V109.896C222.82 111.992 222.212 113.488 220.996 114.384C219.796 115.28 218.244 115.728 216.34 115.728C215.78 115.728 215.156 115.688 214.468 115.608C214.308 115.592 214.228 115.488 214.228 115.296L214.324 112.824C214.324 112.616 214.436 112.528 214.66 112.56C215.236 112.656 215.764 112.704 216.244 112.704C217.268 112.704 218.052 112.48 218.596 112.032C219.156 111.584 219.436 110.864 219.436 109.872C219.436 109.824 219.42 109.8 219.388 109.8C219.356 109.784 219.324 109.792 219.292 109.824C218.684 110.48 217.796 110.808 216.628 110.808C215.588 110.808 214.628 110.56 213.748 110.064C212.884 109.552 212.268 108.736 211.9 107.616C211.66 106.88 211.54 105.928 211.54 104.76C211.54 103.512 211.684 102.496 211.972 101.712C212.308 100.736 212.876 99.952 213.676 99.36C214.476 98.768 215.404 98.472 216.46 98.472C217.692 98.472 218.636 98.84 219.292 99.576C219.324 99.608 219.356 99.624 219.388 99.624C219.42 99.608 219.436 99.576 219.436 99.528V98.952ZM219.244 106.704C219.372 106.224 219.436 105.568 219.436 104.736C219.436 104.24 219.42 103.856 219.388 103.584C219.356 103.312 219.3 103.056 219.22 102.816C219.076 102.384 218.836 102.04 218.5 101.784C218.164 101.512 217.748 101.376 217.252 101.376C216.772 101.376 216.364 101.512 216.028 101.784C215.692 102.04 215.444 102.384 215.284 102.816C215.06 103.296 214.948 103.944 214.948 104.76C214.948 105.656 215.044 106.296 215.236 106.68C215.38 107.112 215.628 107.464 215.98 107.736C216.348 107.992 216.78 108.12 217.276 108.12C217.788 108.12 218.212 107.992 218.548 107.736C218.884 107.464 219.116 107.12 219.244 106.704ZM236.473 98.472C237.753 98.472 238.785 98.864 239.569 99.648C240.353 100.432 240.745 101.496 240.745 102.84V110.712C240.745 110.792 240.713 110.864 240.649 110.928C240.601 110.976 240.537 111 240.457 111H237.649C237.569 111 237.497 110.976 237.433 110.928C237.385 110.864 237.361 110.792 237.361 110.712V103.536C237.361 102.896 237.177 102.376 236.809 101.976C236.457 101.576 235.985 101.376 235.393 101.376C234.801 101.376 234.321 101.576 233.953 101.976C233.601 102.376 233.425 102.896 233.425 103.536V110.712C233.425 110.792 233.393 110.864 233.329 110.928C233.281 110.976 233.217 111 233.137 111H230.329C230.249 111 230.177 110.976 230.113 110.928C230.065 110.864 230.041 110.792 230.041 110.712V98.952C230.041 98.872 230.065 98.808 230.113 98.76C230.177 98.696 230.249 98.664 230.329 98.664H233.137C233.217 98.664 233.281 98.696 233.329 98.76C233.393 98.808 233.425 98.872 233.425 98.952V99.792C233.425 99.84 233.441 99.872 233.473 99.888C233.505 99.904 233.529 99.896 233.545 99.864C234.201 98.936 235.177 98.472 236.473 98.472ZM250.702 98.952C250.702 98.872 250.726 98.808 250.774 98.76C250.838 98.696 250.91 98.664 250.99 98.664H253.798C253.878 98.664 253.942 98.696 253.99 98.76C254.054 98.808 254.086 98.872 254.086 98.952V109.896C254.086 111.992 253.478 113.488 252.262 114.384C251.062 115.28 249.51 115.728 247.606 115.728C247.046 115.728 246.422 115.688 245.734 115.608C245.574 115.592 245.494 115.488 245.494 115.296L245.59 112.824C245.59 112.616 245.702 112.528 245.926 112.56C246.502 112.656 247.03 112.704 247.51 112.704C248.534 112.704 249.318 112.48 249.862 112.032C250.422 111.584 250.702 110.864 250.702 109.872C250.702 109.824 250.686 109.8 250.654 109.8C250.622 109.784 250.59 109.792 250.558 109.824C249.95 110.48 249.062 110.808 247.894 110.808C246.854 110.808 245.894 110.56 245.014 110.064C244.15 109.552 243.534 108.736 243.166 107.616C242.926 106.88 242.806 105.928 242.806 104.76C242.806 103.512 242.95 102.496 243.238 101.712C243.574 100.736 244.142 99.952 244.942 99.36C245.742 98.768 246.67 98.472 247.726 98.472C248.958 98.472 249.902 98.84 250.558 99.576C250.59 99.608 250.622 99.624 250.654 99.624C250.686 99.608 250.702 99.576 250.702 99.528V98.952ZM250.51 106.704C250.638 106.224 250.702 105.568 250.702 104.736C250.702 104.24 250.686 103.856 250.654 103.584C250.622 103.312 250.566 103.056 250.486 102.816C250.342 102.384 250.102 102.04 249.766 101.784C249.43 101.512 249.014 101.376 248.518 101.376C248.038 101.376 247.63 101.512 247.294 101.784C246.958 102.04 246.71 102.384 246.55 102.816C246.326 103.296 246.214 103.944 246.214 104.76C246.214 105.656 246.31 106.296 246.502 106.68C246.646 107.112 246.894 107.464 247.246 107.736C247.614 107.992 248.046 108.12 248.542 108.12C249.054 108.12 249.478 107.992 249.814 107.736C250.15 107.464 250.382 107.12 250.51 106.704ZM262.934 98.472C264.214 98.472 265.246 98.864 266.03 99.648C266.814 100.432 267.206 101.496 267.206 102.84V110.712C267.206 110.792 267.174 110.864 267.11 110.928C267.062 110.976 266.998 111 266.918 111H264.11C264.03 111 263.958 110.976 263.894 110.928C263.846 110.864 263.822 110.792 263.822 110.712V103.536C263.822 102.896 263.638 102.376 263.27 101.976C262.918 101.576 262.446 101.376 261.854 101.376C261.262 101.376 260.782 101.576 260.414 101.976C260.062 102.376 259.886 102.896 259.886 103.536V110.712C259.886 110.792 259.854 110.864 259.79 110.928C259.742 110.976 259.678 111 259.598 111H256.79C256.71 111 256.638 110.976 256.574 110.928C256.526 110.864 256.502 110.792 256.502 110.712V94.488C256.502 94.408 256.526 94.344 256.574 94.296C256.638 94.232 256.71 94.2 256.79 94.2H259.598C259.678 94.2 259.742 94.232 259.79 94.296C259.854 94.344 259.886 94.408 259.886 94.488V99.792C259.886 99.84 259.902 99.872 259.934 99.888C259.966 99.904 259.99 99.896 260.006 99.864C260.662 98.936 261.638 98.472 262.934 98.472ZM280.477 103.56C280.573 104.168 280.605 104.848 280.573 105.6C280.557 105.792 280.453 105.888 280.261 105.888H272.845C272.749 105.888 272.717 105.928 272.749 106.008C272.797 106.328 272.885 106.648 273.013 106.968C273.429 107.864 274.277 108.312 275.557 108.312C276.581 108.296 277.389 107.88 277.981 107.064C278.045 106.968 278.117 106.92 278.197 106.92C278.245 106.92 278.301 106.952 278.365 107.016L280.093 108.72C280.173 108.8 280.213 108.872 280.213 108.936C280.213 108.968 280.181 109.032 280.117 109.128C279.589 109.784 278.909 110.296 278.077 110.664C277.245 111.016 276.333 111.192 275.341 111.192C273.965 111.192 272.797 110.88 271.837 110.256C270.893 109.632 270.213 108.76 269.797 107.64C269.461 106.84 269.293 105.792 269.293 104.496C269.293 103.616 269.413 102.84 269.653 102.168C270.021 101.032 270.661 100.128 271.573 99.456C272.501 98.784 273.597 98.448 274.861 98.448C276.461 98.448 277.741 98.912 278.701 99.84C279.677 100.768 280.269 102.008 280.477 103.56ZM274.885 101.376C273.877 101.376 273.213 101.848 272.893 102.792C272.829 103 272.773 103.256 272.725 103.56C272.725 103.64 272.765 103.68 272.845 103.68H276.997C277.093 103.68 277.125 103.64 277.093 103.56C277.013 103.096 276.973 102.872 276.973 102.888C276.829 102.408 276.573 102.04 276.205 101.784C275.853 101.512 275.413 101.376 274.885 101.376ZM275.173 116.4C274.645 116.4 274.213 116.224 273.877 115.872C273.541 115.536 273.373 115.112 273.373 114.6C273.373 114.056 273.541 113.616 273.877 113.28C274.213 112.96 274.645 112.8 275.173 112.8C275.701 112.8 276.133 112.96 276.469 113.28C276.805 113.616 276.973 114.056 276.973 114.6C276.973 115.112 276.797 115.536 276.445 115.872C276.109 116.224 275.685 116.4 275.173 116.4ZM271.285 97.272C271.173 97.272 271.093 97.24 271.045 97.176C271.013 97.096 271.029 97.008 271.093 96.912L272.845 94.392C272.925 94.264 273.037 94.2 273.181 94.2H276.373C276.517 94.2 276.629 94.264 276.709 94.392L278.533 96.912C278.581 96.976 278.605 97.032 278.605 97.08C278.605 97.208 278.517 97.272 278.341 97.272H276.181C276.037 97.272 275.925 97.208 275.845 97.08L274.885 95.616C274.837 95.52 274.789 95.52 274.741 95.616L273.781 97.08C273.701 97.208 273.589 97.272 273.445 97.272H271.285Z" fill="white"/>
<path opacity="0.72" d="M43.5564 156L39.4924 151.024V156H37.2524V144.832H39.4924V149.84L43.5564 144.832H46.2604L41.6524 150.368L46.3884 156H43.5564ZM53.2538 146.304C52.9871 146.123 52.7151 145.925 52.4378 145.712C52.1605 145.488 51.8831 145.253 51.6058 145.008C51.3285 145.253 51.0511 145.488 50.7738 145.712C50.4965 145.925 50.2245 146.123 49.9578 146.304H48.6938V146.096C48.8751 145.893 49.0618 145.669 49.2538 145.424C49.4458 145.168 49.6378 144.912 49.8298 144.656C50.0325 144.389 50.2138 144.139 50.3738 143.904H52.8378C53.0085 144.139 53.1898 144.389 53.3818 144.656C53.5738 144.912 53.7658 145.168 53.9578 145.424C54.1605 145.669 54.3471 145.893 54.5178 146.096V146.304H53.2538ZM53.8298 144.576C54.0431 144.352 54.2298 144.123 54.3898 143.888C54.5605 143.643 54.7311 143.349 54.9018 143.008H56.7898V143.168C56.5551 143.477 56.2778 143.771 55.9578 144.048C55.6378 144.315 55.3231 144.56 55.0138 144.784H53.8298V144.576ZM51.6058 147.104C52.4165 147.104 53.1098 147.259 53.6858 147.568C54.2725 147.877 54.7258 148.325 55.0458 148.912C55.3658 149.499 55.5258 150.219 55.5258 151.072V152.224H49.8938C49.9151 152.896 50.1125 153.424 50.4858 153.808C50.8698 154.192 51.3978 154.384 52.0698 154.384C52.6351 154.384 53.1471 154.331 53.6058 154.224C54.0645 154.107 54.5391 153.931 55.0298 153.696V155.536C54.6031 155.749 54.1498 155.904 53.6698 156C53.2005 156.107 52.6298 156.16 51.9578 156.16C51.0831 156.16 50.3098 156 49.6378 155.68C48.9658 155.349 48.4378 154.853 48.0538 154.192C47.6698 153.531 47.4778 152.699 47.4778 151.696C47.4778 150.672 47.6485 149.824 47.9898 149.152C48.3418 148.469 48.8271 147.957 49.4458 147.616C50.0645 147.275 50.7845 147.104 51.6058 147.104ZM51.6218 148.8C51.1631 148.8 50.7791 148.949 50.4698 149.248C50.1711 149.547 49.9951 150.011 49.9418 150.64H53.2858C53.2858 150.288 53.2218 149.973 53.0938 149.696C52.9765 149.419 52.7951 149.2 52.5498 149.04C52.3045 148.88 51.9951 148.8 51.6218 148.8ZM59.9229 148.976V153.264C59.9229 153.563 59.9923 153.781 60.1309 153.92C60.2803 154.048 60.5256 154.112 60.8669 154.112H61.9069V156H60.4989C58.6109 156 57.6669 155.083 57.6669 153.248V148.976H56.6109V147.136H57.6669V144.944H59.9229V147.136H61.9069V148.976H59.9229ZM70.7226 156.144C69.9972 156.144 69.3466 156.016 68.7706 155.76C68.1946 155.493 67.7359 155.136 67.3946 154.688C67.0639 154.24 66.8826 153.744 66.8506 153.2H69.1066C69.1492 153.541 69.3146 153.824 69.6026 154.048C69.9012 154.272 70.2692 154.384 70.7066 154.384C71.1332 154.384 71.4639 154.299 71.6986 154.128C71.9439 153.957 72.0666 153.739 72.0666 153.472C72.0666 153.184 71.9172 152.971 71.6186 152.832C71.3306 152.683 70.8666 152.523 70.2266 152.352C69.5652 152.192 69.0212 152.027 68.5946 151.856C68.1786 151.685 67.8159 151.424 67.5066 151.072C67.2079 150.72 67.0586 150.245 67.0586 149.648C67.0586 149.157 67.1972 148.709 67.4746 148.304C67.7626 147.899 68.1679 147.579 68.6906 147.344C69.2239 147.109 69.8479 146.992 70.5626 146.992C71.6186 146.992 72.4612 147.259 73.0906 147.792C73.7199 148.315 74.0666 149.024 74.1306 149.92H71.9866C71.9546 149.568 71.8052 149.291 71.5386 149.088C71.2826 148.875 70.9359 148.768 70.4986 148.768C70.0932 148.768 69.7786 148.843 69.5546 148.992C69.3412 149.141 69.2346 149.349 69.2346 149.616C69.2346 149.915 69.3839 150.144 69.6826 150.304C69.9812 150.453 70.4452 150.608 71.0746 150.768C71.7146 150.928 72.2426 151.093 72.6586 151.264C73.0746 151.435 73.4319 151.701 73.7306 152.064C74.0399 152.416 74.1999 152.885 74.2106 153.472C74.2106 153.984 74.0666 154.443 73.7786 154.848C73.5012 155.253 73.0959 155.573 72.5626 155.808C72.0399 156.032 71.4266 156.144 70.7226 156.144ZM87.8413 146.128C87.756 146.565 87.6386 146.976 87.4893 147.36C87.34 147.744 87.132 148.091 86.8653 148.4C86.6093 148.699 86.268 148.955 85.8413 149.168C85.4146 149.371 84.8706 149.52 84.2093 149.616V156H82.3853L82.0653 154.88H81.9213C81.74 155.179 81.5053 155.424 81.2173 155.616C80.94 155.797 80.6306 155.931 80.2893 156.016C79.9586 156.112 79.612 156.16 79.2493 156.16C78.6306 156.16 78.0866 156.048 77.6173 155.824C77.148 155.6 76.7853 155.253 76.5293 154.784C76.2733 154.315 76.1453 153.707 76.1453 152.96V147.264H78.5293V152.368C78.5293 152.987 78.6413 153.456 78.8653 153.776C79.0893 154.096 79.4466 154.256 79.9373 154.256C80.6626 154.256 81.1586 154.011 81.4253 153.52C81.692 153.019 81.8253 152.304 81.8253 151.376V147.264H84.2093V148.176C84.476 148.091 84.6946 147.947 84.8653 147.744C85.036 147.531 85.164 147.275 85.2493 146.976C85.3346 146.667 85.3773 146.325 85.3773 145.952H87.7293L87.8413 146.128ZM83.2813 143.904C83.132 144.053 82.9346 144.235 82.6893 144.448C82.444 144.661 82.1773 144.885 81.8893 145.12C81.612 145.355 81.3346 145.579 81.0573 145.792C80.7906 145.995 80.556 146.165 80.3533 146.304H78.7693V146.096C78.94 145.893 79.1373 145.659 79.3613 145.392C79.596 145.115 79.8253 144.832 80.0493 144.544C80.2733 144.245 80.46 143.979 80.6093 143.744H83.2813V143.904ZM87.6296 151.568C87.6296 150.651 87.8162 149.851 88.1896 149.168C88.5629 148.475 89.0802 147.941 89.7416 147.568C90.4029 147.184 91.1602 146.992 92.0136 146.992C93.1122 146.992 94.0189 147.269 94.7336 147.824C95.4589 148.368 95.9442 149.136 96.1896 150.128H93.7736C93.6456 149.744 93.4269 149.445 93.1176 149.232C92.8189 149.008 92.4456 148.896 91.9976 148.896C91.3576 148.896 90.8509 149.131 90.4776 149.6C90.1042 150.059 89.9176 150.715 89.9176 151.568C89.9176 152.411 90.1042 153.067 90.4776 153.536C90.8509 153.995 91.3576 154.224 91.9976 154.224C92.9042 154.224 93.4962 153.819 93.7736 153.008H96.1896C95.9442 153.968 95.4589 154.731 94.7336 155.296C94.0082 155.861 93.1016 156.144 92.0136 156.144C91.1602 156.144 90.4029 155.957 89.7416 155.584C89.0802 155.2 88.5629 154.667 88.1896 153.984C87.8162 153.291 87.6296 152.485 87.6296 151.568ZM112.651 147.008C113.739 147.008 114.614 147.344 115.275 148.016C115.947 148.677 116.283 149.605 116.283 150.8V156H114.043V151.104C114.043 150.411 113.867 149.883 113.515 149.52C113.163 149.147 112.683 148.96 112.075 148.96C111.467 148.96 110.982 149.147 110.619 149.52C110.267 149.883 110.091 150.411 110.091 151.104V156H107.851V151.104C107.851 150.411 107.675 149.883 107.323 149.52C106.971 149.147 106.491 148.96 105.883 148.96C105.264 148.96 104.774 149.147 104.411 149.52C104.059 149.883 103.883 150.411 103.883 151.104V156H101.643V147.136H103.883V148.208C104.171 147.835 104.539 147.541 104.987 147.328C105.446 147.115 105.947 147.008 106.491 147.008C107.184 147.008 107.803 147.157 108.347 147.456C108.891 147.744 109.312 148.16 109.611 148.704C109.899 148.192 110.315 147.781 110.859 147.472C111.414 147.163 112.011 147.008 112.651 147.008ZM122.137 147.088C123.31 147.088 124.206 147.344 124.825 147.856C125.454 148.357 125.769 149.131 125.769 150.176V156H124.105L123.641 154.816H123.577C123.331 155.125 123.075 155.381 122.809 155.584C122.553 155.787 122.254 155.931 121.913 156.016C121.582 156.112 121.171 156.16 120.681 156.16C120.169 156.16 119.705 156.064 119.289 155.872C118.883 155.669 118.563 155.365 118.329 154.96C118.094 154.544 117.977 154.021 117.977 153.392C117.977 152.464 118.302 151.781 118.953 151.344C119.603 150.896 120.579 150.651 121.881 150.608L123.401 150.56V150.176C123.401 149.717 123.278 149.381 123.033 149.168C122.798 148.955 122.467 148.848 122.041 148.848C121.614 148.848 121.198 148.912 120.793 149.04C120.387 149.157 119.982 149.307 119.577 149.488L118.793 147.872C119.262 147.627 119.779 147.435 120.345 147.296C120.921 147.157 121.518 147.088 122.137 147.088ZM122.473 151.984C121.705 152.005 121.171 152.144 120.873 152.4C120.574 152.656 120.425 152.992 120.425 153.408C120.425 153.771 120.531 154.032 120.745 154.192C120.958 154.341 121.235 154.416 121.577 154.416C122.089 154.416 122.521 154.267 122.873 153.968C123.225 153.659 123.401 153.227 123.401 152.672V151.952L122.473 151.984ZM122.121 159.36C121.758 159.36 121.449 159.275 121.193 159.104C120.947 158.933 120.825 158.629 120.825 158.192C120.825 157.744 120.947 157.435 121.193 157.264C121.449 157.104 121.758 157.024 122.121 157.024C122.473 157.024 122.777 157.104 123.033 157.264C123.289 157.435 123.417 157.744 123.417 158.192C123.417 158.629 123.289 158.933 123.033 159.104C122.777 159.275 122.473 159.36 122.121 159.36ZM132.977 147.008C134.033 147.008 134.886 147.344 135.537 148.016C136.188 148.677 136.513 149.605 136.513 150.8V156H134.273V151.104C134.273 150.4 134.097 149.861 133.745 149.488C133.393 149.104 132.913 148.912 132.305 148.912C131.686 148.912 131.196 149.104 130.833 149.488C130.481 149.861 130.305 150.4 130.305 151.104V156H128.065V147.136H130.305V148.24C130.604 147.856 130.982 147.557 131.441 147.344C131.91 147.12 132.422 147.008 132.977 147.008ZM143.635 147.008C144.307 147.008 144.904 147.157 145.427 147.456C145.95 147.744 146.355 148.176 146.643 148.752C146.942 149.317 147.091 150 147.091 150.8V156H144.851V151.104C144.851 150.4 144.675 149.861 144.323 149.488C143.971 149.104 143.491 148.912 142.883 148.912C142.264 148.912 141.774 149.104 141.411 149.488C141.059 149.861 140.883 150.4 140.883 151.104V156H138.643V144.16H140.883V148.24C141.171 147.856 141.555 147.557 142.035 147.344C142.515 147.12 143.048 147.008 143.635 147.008ZM159.85 149.344V151.232H153.066V149.344H159.85ZM175.726 156H173.486L168.414 148.336V156H166.174V144.816H168.414L173.486 152.496V144.816H175.726V156ZM183.38 146.304C183.113 146.123 182.841 145.925 182.564 145.712C182.287 145.488 182.009 145.253 181.732 145.008C181.455 145.253 181.177 145.488 180.9 145.712C180.623 145.925 180.351 146.123 180.084 146.304H178.82V146.096C179.001 145.893 179.188 145.669 179.38 145.424C179.572 145.168 179.764 144.912 179.956 144.656C180.159 144.389 180.34 144.139 180.5 143.904H182.964C183.135 144.139 183.316 144.389 183.508 144.656C183.7 144.912 183.892 145.168 184.084 145.424C184.287 145.669 184.473 145.893 184.644 146.096V146.304H183.38ZM183.956 144.576C184.169 144.352 184.356 144.123 184.516 143.888C184.687 143.643 184.857 143.349 185.028 143.008H186.916V143.168C186.681 143.477 186.404 143.771 186.084 144.048C185.764 144.315 185.449 144.56 185.14 144.784H183.956V144.576ZM186.02 151.616C186.02 152.341 185.919 152.987 185.716 153.552C185.524 154.117 185.241 154.597 184.868 154.992C184.505 155.376 184.063 155.669 183.54 155.872C183.017 156.064 182.425 156.16 181.764 156.16C181.156 156.16 180.591 156.064 180.068 155.872C179.556 155.669 179.113 155.376 178.74 154.992C178.367 154.597 178.073 154.117 177.86 153.552C177.657 152.987 177.556 152.341 177.556 151.616C177.556 150.645 177.727 149.829 178.068 149.168C178.409 148.496 178.9 147.984 179.54 147.632C180.18 147.28 180.937 147.104 181.812 147.104C182.633 147.104 183.359 147.28 183.988 147.632C184.617 147.984 185.113 148.496 185.476 149.168C185.839 149.829 186.02 150.645 186.02 151.616ZM179.988 151.616C179.988 152.192 180.047 152.677 180.164 153.072C180.292 153.456 180.489 153.749 180.756 153.952C181.023 154.144 181.369 154.24 181.796 154.24C182.223 154.24 182.564 154.144 182.82 153.952C183.087 153.749 183.279 153.456 183.396 153.072C183.524 152.677 183.588 152.192 183.588 151.616C183.588 151.04 183.524 150.56 183.396 150.176C183.279 149.792 183.087 149.504 182.82 149.312C182.553 149.12 182.207 149.024 181.78 149.024C181.151 149.024 180.692 149.243 180.404 149.68C180.127 150.107 179.988 150.752 179.988 151.616ZM188.982 146.08C188.588 146.08 188.257 145.957 187.99 145.712C187.734 145.456 187.606 145.141 187.606 144.768C187.606 144.395 187.734 144.085 187.99 143.84C188.257 143.584 188.588 143.456 188.982 143.456C189.377 143.456 189.702 143.584 189.958 143.84C190.225 144.085 190.358 144.395 190.358 144.768C190.358 145.141 190.225 145.456 189.958 145.712C189.702 145.957 189.377 146.08 188.982 146.08ZM190.086 147.136V156H187.846V147.136H190.086ZM198.72 148.976V153.264C198.72 153.563 198.789 153.781 198.928 153.92C199.077 154.048 199.322 154.112 199.664 154.112H200.704V156H199.296C197.408 156 196.464 155.083 196.464 153.248V148.976H195.408V147.136H196.464V144.944H198.72V147.136H200.704V148.976H198.72ZM207.307 147.008C207.979 147.008 208.576 147.157 209.099 147.456C209.622 147.744 210.027 148.176 210.315 148.752C210.614 149.317 210.763 150 210.763 150.8V156H208.523V151.104C208.523 150.4 208.347 149.861 207.995 149.488C207.643 149.104 207.163 148.912 206.555 148.912C205.936 148.912 205.446 149.104 205.083 149.488C204.731 149.861 204.555 150.4 204.555 151.104V156H202.315V144.16H204.555V148.24C204.843 147.856 205.227 147.557 205.707 147.344C206.187 147.12 206.72 147.008 207.307 147.008ZM212.317 151.536C212.317 150.64 212.493 149.845 212.845 149.152C213.208 148.459 213.693 147.925 214.301 147.552C214.92 147.179 215.608 146.992 216.365 146.992C217.026 146.992 217.602 147.125 218.093 147.392C218.594 147.659 218.994 147.995 219.293 148.4V147.136H221.549V156H219.293V154.704C219.005 155.12 218.605 155.467 218.093 155.744C217.592 156.011 217.01 156.144 216.349 156.144C215.602 156.144 214.92 155.952 214.301 155.568C213.693 155.184 213.208 154.645 212.845 153.952C212.493 153.248 212.317 152.443 212.317 151.536ZM219.293 151.568C219.293 151.024 219.186 150.56 218.973 150.176C218.76 149.781 218.472 149.483 218.109 149.28C217.746 149.067 217.357 148.96 216.941 148.96C216.525 148.96 216.141 149.061 215.789 149.264C215.437 149.467 215.149 149.765 214.925 150.16C214.712 150.544 214.605 151.003 214.605 151.536C214.605 152.069 214.712 152.539 214.925 152.944C215.149 153.339 215.437 153.643 215.789 153.856C216.152 154.069 216.536 154.176 216.941 154.176C217.357 154.176 217.746 154.075 218.109 153.872C218.472 153.659 218.76 153.36 218.973 152.976C219.186 152.581 219.293 152.112 219.293 151.568ZM218.989 144.912V146.512L215.309 144.832V143.008L218.989 144.912ZM228.649 147.008C229.705 147.008 230.558 147.344 231.209 148.016C231.859 148.677 232.185 149.605 232.185 150.8V156H229.945V151.104C229.945 150.4 229.769 149.861 229.417 149.488C229.065 149.104 228.585 148.912 227.977 148.912C227.358 148.912 226.867 149.104 226.505 149.488C226.153 149.861 225.977 150.4 225.977 151.104V156H223.737V147.136H225.977V148.24C226.275 147.856 226.654 147.557 227.113 147.344C227.582 147.12 228.094 147.008 228.649 147.008ZM239.307 147.008C239.979 147.008 240.576 147.157 241.099 147.456C241.622 147.744 242.027 148.176 242.315 148.752C242.614 149.317 242.763 150 242.763 150.8V156H240.523V151.104C240.523 150.4 240.347 149.861 239.995 149.488C239.643 149.104 239.163 148.912 238.555 148.912C237.936 148.912 237.446 149.104 237.083 149.488C236.731 149.861 236.555 150.4 236.555 151.104V156H234.315V144.16H236.555V148.24C236.843 147.856 237.227 147.557 237.707 147.344C238.187 147.12 238.72 147.008 239.307 147.008ZM248.13 151.568C248.13 150.651 248.316 149.851 248.69 149.168C249.063 148.475 249.58 147.941 250.242 147.568C250.903 147.184 251.66 146.992 252.514 146.992C253.612 146.992 254.519 147.269 255.234 147.824C255.959 148.368 256.444 149.136 256.69 150.128H254.274C254.146 149.744 253.927 149.445 253.618 149.232C253.319 149.008 252.946 148.896 252.498 148.896C251.858 148.896 251.351 149.131 250.978 149.6C250.604 150.059 250.418 150.715 250.418 151.568C250.418 152.411 250.604 153.067 250.978 153.536C251.351 153.995 251.858 154.224 252.498 154.224C253.404 154.224 253.996 153.819 254.274 153.008H256.69C256.444 153.968 255.959 154.731 255.234 155.296C254.508 155.861 253.602 156.144 252.514 156.144C251.66 156.144 250.903 155.957 250.242 155.584C249.58 155.2 249.063 154.667 248.69 153.984C248.316 153.291 248.13 152.485 248.13 151.568ZM262.267 156.144C261.413 156.144 260.645 155.957 259.963 155.584C259.28 155.2 258.741 154.661 258.347 153.968C257.963 153.275 257.771 152.475 257.771 151.568C257.771 150.661 257.968 149.861 258.363 149.168C258.768 148.475 259.317 147.941 260.011 147.568C260.704 147.184 261.477 146.992 262.331 146.992C263.184 146.992 263.957 147.184 264.651 147.568C265.344 147.941 265.888 148.475 266.283 149.168C266.688 149.861 266.891 150.661 266.891 151.568C266.891 152.475 266.683 153.275 266.267 153.968C265.861 154.661 265.307 155.2 264.603 155.584C263.909 155.957 263.131 156.144 262.267 156.144ZM262.267 154.192C262.672 154.192 263.051 154.096 263.403 153.904C263.765 153.701 264.053 153.403 264.267 153.008C264.48 152.613 264.587 152.133 264.587 151.568C264.587 150.725 264.363 150.08 263.915 149.632C263.477 149.173 262.939 148.944 262.299 148.944C261.659 148.944 261.12 149.173 260.683 149.632C260.256 150.08 260.043 150.725 260.043 151.568C260.043 152.411 260.251 153.061 260.667 153.52C261.093 153.968 261.627 154.192 262.267 154.192ZM262.427 145.056L260.043 146.4V144.768L262.427 143.472L264.795 144.768V146.4L262.427 145.056ZM273.446 147.008C274.502 147.008 275.355 147.344 276.006 148.016C276.656 148.677 276.982 149.605 276.982 150.8V156H274.742V151.104C274.742 150.4 274.566 149.861 274.214 149.488C273.862 149.104 273.382 148.912 272.774 148.912C272.155 148.912 271.664 149.104 271.302 149.488C270.95 149.861 270.774 150.4 270.774 151.104V156H268.534V147.136H270.774V148.24C271.072 147.856 271.451 147.557 271.91 147.344C272.379 147.12 272.891 147.008 273.446 147.008ZM282.584 146.992C283.245 146.992 283.826 147.125 284.328 147.392C284.829 147.648 285.224 147.984 285.512 148.4V147.136H287.768V156.064C287.768 156.885 287.602 157.616 287.272 158.256C286.941 158.907 286.445 159.419 285.784 159.792C285.122 160.176 284.322 160.368 283.384 160.368C282.125 160.368 281.09 160.075 280.28 159.488C279.48 158.901 279.026 158.101 278.92 157.088H281.144C281.261 157.493 281.512 157.813 281.896 158.048C282.29 158.293 282.765 158.416 283.32 158.416C283.97 158.416 284.498 158.219 284.904 157.824C285.309 157.44 285.512 156.853 285.512 156.064V154.688C285.224 155.104 284.824 155.451 284.312 155.728C283.81 156.005 283.234 156.144 282.584 156.144C281.837 156.144 281.154 155.952 280.536 155.568C279.917 155.184 279.426 154.645 279.064 153.952C278.712 153.248 278.536 152.443 278.536 151.536C278.536 150.64 278.712 149.845 279.064 149.152C279.426 148.459 279.912 147.925 280.52 147.552C281.138 147.179 281.826 146.992 282.584 146.992ZM285.512 151.568C285.512 151.024 285.405 150.56 285.192 150.176C284.978 149.781 284.69 149.483 284.328 149.28C283.965 149.067 283.576 148.96 283.16 148.96C282.744 148.96 282.36 149.061 282.008 149.264C281.656 149.467 281.368 149.765 281.144 150.16C280.93 150.544 280.824 151.003 280.824 151.536C280.824 152.069 280.93 152.539 281.144 152.944C281.368 153.339 281.656 153.643 282.008 153.856C282.37 154.069 282.754 154.176 283.16 154.176C283.576 154.176 283.965 154.075 284.328 153.872C284.69 153.659 284.978 153.36 285.192 152.976C285.405 152.581 285.512 152.112 285.512 151.568Z" fill="white"/>
<path d="M62.206 231.936C62.1633 231.979 62.1527 232.021 62.174 232.064C62.1953 232.107 62.238 232.128 62.302 232.128H70.974C71.0807 232.128 71.166 232.171 71.23 232.256C71.3153 232.32 71.358 232.405 71.358 232.512V235.616C71.358 235.723 71.3153 235.819 71.23 235.904C71.166 235.968 71.0807 236 70.974 236H56.574C56.4673 236 56.3713 235.968 56.286 235.904C56.222 235.819 56.19 235.723 56.19 235.616V232.672C56.19 232.48 56.254 232.32 56.382 232.192C57.4273 231.168 58.494 230.059 59.582 228.864C60.67 227.648 61.3527 226.891 61.63 226.592C62.2273 225.888 62.8353 225.216 63.454 224.576C65.3953 222.421 66.366 220.821 66.366 219.776C66.366 219.029 66.0993 218.421 65.566 217.952C65.0327 217.461 64.3393 217.216 63.486 217.216C62.6327 217.216 61.9393 217.461 61.406 217.952C60.8727 218.421 60.606 219.051 60.606 219.84V220.64C60.606 220.747 60.5633 220.843 60.478 220.928C60.414 220.992 60.3287 221.024 60.222 221.024H56.446C56.3393 221.024 56.2433 220.992 56.158 220.928C56.094 220.843 56.062 220.747 56.062 220.64V219.136C56.126 217.984 56.4887 216.971 57.15 216.096C57.8113 215.2 58.686 214.517 59.774 214.048C60.8833 213.579 62.1207 213.344 63.486 213.344C65.0007 213.344 66.3127 213.632 67.422 214.208C68.5527 214.763 69.4167 215.52 70.014 216.48C70.6327 217.44 70.942 218.507 70.942 219.68C70.942 220.576 70.718 221.493 70.27 222.432C69.822 223.371 69.15 224.384 68.254 225.472C67.5927 226.304 66.878 227.125 66.11 227.936C65.342 228.747 64.2007 229.92 62.686 231.456L62.206 231.936ZM92.5603 219.296C94.2243 219.296 95.5256 219.797 96.4643 220.8C97.4029 221.803 97.8723 223.211 97.8723 225.024V235.616C97.8723 235.723 97.8296 235.819 97.7443 235.904C97.6803 235.968 97.5949 236 97.4883 236H93.7443C93.6376 236 93.5416 235.968 93.4563 235.904C93.3923 235.819 93.3603 235.723 93.3603 235.616V226.016C93.3603 225.141 93.1363 224.448 92.6883 223.936C92.2403 223.424 91.6429 223.168 90.8963 223.168C90.1496 223.168 89.5416 223.424 89.0723 223.936C88.6029 224.448 88.3683 225.131 88.3683 225.984V235.616C88.3683 235.723 88.3256 235.819 88.2403 235.904C88.1763 235.968 88.0909 236 87.9843 236H84.2723C84.1656 236 84.0696 235.968 83.9843 235.904C83.9203 235.819 83.8883 235.723 83.8883 235.616V226.016C83.8883 225.163 83.6536 224.48 83.1843 223.968C82.7149 223.435 82.1069 223.168 81.3603 223.168C80.6776 223.168 80.1016 223.371 79.6323 223.776C79.1843 224.181 78.9176 224.747 78.8323 225.472V235.616C78.8323 235.723 78.7896 235.819 78.7043 235.904C78.6403 235.968 78.5549 236 78.4483 236H74.7043C74.5976 236 74.5016 235.968 74.4163 235.904C74.3523 235.819 74.3203 235.723 74.3203 235.616V219.936C74.3203 219.829 74.3523 219.744 74.4163 219.68C74.5016 219.595 74.5976 219.552 74.7043 219.552H78.4483C78.5549 219.552 78.6403 219.595 78.7043 219.68C78.7896 219.744 78.8323 219.829 78.8323 219.936V221.184C78.8323 221.248 78.8536 221.291 78.8963 221.312C78.9389 221.333 78.9816 221.312 79.0243 221.248C79.8989 219.947 81.2536 219.296 83.0883 219.296C84.1549 219.296 85.0829 219.52 85.8723 219.968C86.6829 220.416 87.3016 221.056 87.7283 221.888C87.7923 222.016 87.8669 222.016 87.9523 221.888C88.4216 221.013 89.0509 220.363 89.8403 219.936C90.6509 219.509 91.5576 219.296 92.5603 219.296Z" fill="#FA541C"/>
<path d="M114.43 221.336C114.51 221.336 114.574 221.368 114.622 221.432C114.686 221.48 114.718 221.544 114.718 221.624V223.952C114.718 224.032 114.686 224.104 114.622 224.168C114.574 224.216 114.51 224.24 114.43 224.24H111.142C111.062 224.24 111.022 224.28 111.022 224.36V227.6C111.022 227.68 110.99 227.752 110.926 227.816C110.878 227.864 110.814 227.888 110.734 227.888H108.43C108.35 227.888 108.278 227.864 108.214 227.816C108.166 227.752 108.142 227.68 108.142 227.6V224.36C108.142 224.28 108.102 224.24 108.022 224.24H104.734C104.654 224.24 104.582 224.216 104.518 224.168C104.47 224.104 104.446 224.032 104.446 223.952V221.624C104.446 221.544 104.47 221.48 104.518 221.432C104.582 221.368 104.654 221.336 104.734 221.336H108.022C108.102 221.336 108.142 221.296 108.142 221.216V217.904C108.142 217.824 108.166 217.76 108.214 217.712C108.278 217.648 108.35 217.616 108.43 217.616H110.734C110.814 217.616 110.878 217.648 110.926 217.712C110.99 217.76 111.022 217.824 111.022 217.904V221.216C111.022 221.296 111.062 221.336 111.142 221.336H114.43Z" fill="#FA541C"/>
<path d="M74.242 260.242V267.452C74.242 268.255 73.9947 268.899 73.5 269.384C73.0053 269.86 72.352 270.098 71.54 270.098C70.7187 270.098 70.0607 269.855 69.566 269.37C69.0713 268.875 68.824 268.203 68.824 267.354H70.098C70.1073 267.83 70.2287 268.217 70.462 268.516C70.7047 268.815 71.064 268.964 71.54 268.964C72.016 268.964 72.3707 268.824 72.604 268.544C72.8373 268.255 72.954 267.891 72.954 267.452V260.242H74.242ZM80.0978 270.126C79.3792 270.126 78.7258 269.963 78.1378 269.636C77.5592 269.309 77.1018 268.847 76.7658 268.25C76.4392 267.643 76.2758 266.943 76.2758 266.15C76.2758 265.366 76.4438 264.675 76.7798 264.078C77.1252 263.471 77.5918 263.009 78.1798 262.692C78.7678 262.365 79.4258 262.202 80.1538 262.202C80.8818 262.202 81.5398 262.365 82.1278 262.692C82.7158 263.009 83.1778 263.467 83.5138 264.064C83.8592 264.661 84.0318 265.357 84.0318 266.15C84.0318 266.943 83.8545 267.643 83.4998 268.25C83.1545 268.847 82.6832 269.309 82.0858 269.636C81.4885 269.963 80.8258 270.126 80.0978 270.126ZM80.0978 269.006C80.5552 269.006 80.9845 268.899 81.3858 268.684C81.7872 268.469 82.1092 268.147 82.3518 267.718C82.6038 267.289 82.7298 266.766 82.7298 266.15C82.7298 265.534 82.6085 265.011 82.3658 264.582C82.1232 264.153 81.8058 263.835 81.4138 263.63C81.0218 263.415 80.5972 263.308 80.1398 263.308C79.6732 263.308 79.2438 263.415 78.8518 263.63C78.4692 263.835 78.1612 264.153 77.9278 264.582C77.6945 265.011 77.5778 265.534 77.5778 266.15C77.5778 266.775 77.6898 267.303 77.9138 267.732C78.1472 268.161 78.4552 268.483 78.8378 268.698C79.2205 268.903 79.6405 269.006 80.0978 269.006ZM86.9809 263.756C87.2422 263.299 87.6249 262.925 88.1289 262.636C88.6329 262.347 89.2069 262.202 89.8509 262.202C90.5416 262.202 91.1622 262.365 91.7129 262.692C92.2636 263.019 92.6976 263.481 93.0149 264.078C93.3322 264.666 93.4909 265.352 93.4909 266.136C93.4909 266.911 93.3322 267.601 93.0149 268.208C92.6976 268.815 92.2589 269.286 91.6989 269.622C91.1482 269.958 90.5322 270.126 89.8509 270.126C89.1882 270.126 88.6049 269.981 88.1009 269.692C87.6062 269.403 87.2329 269.034 86.9809 268.586V270H85.7069V259.64H86.9809V263.756ZM92.1889 266.136C92.1889 265.557 92.0722 265.053 91.8389 264.624C91.6056 264.195 91.2882 263.868 90.8869 263.644C90.4949 263.42 90.0609 263.308 89.5849 263.308C89.1182 263.308 88.6842 263.425 88.2829 263.658C87.8909 263.882 87.5736 264.213 87.3309 264.652C87.0976 265.081 86.9809 265.581 86.9809 266.15C86.9809 266.729 87.0976 267.237 87.3309 267.676C87.5736 268.105 87.8909 268.437 88.2829 268.67C88.6842 268.894 89.1182 269.006 89.5849 269.006C90.0609 269.006 90.4949 268.894 90.8869 268.67C91.2882 268.437 91.6056 268.105 91.8389 267.676C92.0722 267.237 92.1889 266.724 92.1889 266.136ZM97.8838 270.126C97.2958 270.126 96.7685 270.028 96.3018 269.832C95.8352 269.627 95.4665 269.347 95.1958 268.992C94.9252 268.628 94.7758 268.213 94.7478 267.746H96.0638C96.1012 268.129 96.2785 268.441 96.5958 268.684C96.9225 268.927 97.3472 269.048 97.8698 269.048C98.3552 269.048 98.7378 268.941 99.0178 268.726C99.2978 268.511 99.4378 268.241 99.4378 267.914C99.4378 267.578 99.2885 267.331 98.9898 267.172C98.6912 267.004 98.2292 266.841 97.6038 266.682C97.0345 266.533 96.5678 266.383 96.2038 266.234C95.8492 266.075 95.5412 265.847 95.2798 265.548C95.0278 265.24 94.9018 264.839 94.9018 264.344C94.9018 263.952 95.0185 263.593 95.2518 263.266C95.4852 262.939 95.8165 262.683 96.2458 262.496C96.6752 262.3 97.1652 262.202 97.7158 262.202C98.5652 262.202 99.2512 262.417 99.7738 262.846C100.297 263.275 100.577 263.863 100.614 264.61H99.3398C99.3118 264.209 99.1485 263.887 98.8498 263.644C98.5605 263.401 98.1685 263.28 97.6738 263.28C97.2165 263.28 96.8525 263.378 96.5818 263.574C96.3112 263.77 96.1758 264.027 96.1758 264.344C96.1758 264.596 96.2552 264.806 96.4138 264.974C96.5818 265.133 96.7872 265.263 97.0298 265.366C97.2818 265.459 97.6272 265.567 98.0658 265.688C98.6165 265.837 99.0645 265.987 99.4098 266.136C99.7552 266.276 100.049 266.491 100.292 266.78C100.544 267.069 100.675 267.447 100.684 267.914C100.684 268.334 100.567 268.712 100.334 269.048C100.101 269.384 99.7692 269.65 99.3398 269.846C98.9198 270.033 98.4345 270.126 97.8838 270.126Z" fill="#919EAB"/>
<path d="M211.962 225.792C212.282 226.837 212.442 227.851 212.442 228.832C212.442 229.92 212.271 230.901 211.93 231.776C211.439 233.141 210.575 234.229 209.338 235.04C208.101 235.829 206.65 236.224 204.986 236.224C203.365 236.224 201.935 235.84 200.698 235.072C199.482 234.283 198.618 233.216 198.106 231.872C197.893 231.317 197.733 230.731 197.626 230.112V230.048C197.626 229.813 197.754 229.696 198.01 229.696H201.882C202.095 229.696 202.234 229.813 202.298 230.048C202.319 230.176 202.351 230.283 202.394 230.368C202.437 230.453 202.469 230.528 202.49 230.592C202.703 231.147 203.023 231.573 203.45 231.872C203.877 232.171 204.378 232.32 204.954 232.32C205.551 232.32 206.074 232.16 206.522 231.84C206.97 231.52 207.301 231.072 207.514 230.496C207.727 230.069 207.834 229.515 207.834 228.832C207.834 228.213 207.738 227.659 207.546 227.168C207.397 226.613 207.098 226.187 206.65 225.888C206.202 225.589 205.679 225.44 205.082 225.44C204.485 225.44 203.93 225.579 203.418 225.856C202.906 226.133 202.565 226.496 202.394 226.944C202.33 227.157 202.191 227.264 201.978 227.264H198.042C197.935 227.264 197.839 227.232 197.754 227.168C197.69 227.083 197.658 226.987 197.658 226.88V213.984C197.658 213.877 197.69 213.792 197.754 213.728C197.839 213.643 197.935 213.6 198.042 213.6H211.258C211.365 213.6 211.45 213.643 211.514 213.728C211.599 213.792 211.642 213.877 211.642 213.984V217.088C211.642 217.195 211.599 217.291 211.514 217.376C211.45 217.44 211.365 217.472 211.258 217.472H202.33C202.223 217.472 202.17 217.525 202.17 217.632L202.138 222.368C202.138 222.517 202.202 222.549 202.33 222.464C203.29 221.845 204.399 221.536 205.658 221.536C207.151 221.536 208.453 221.92 209.562 222.688C210.693 223.435 211.493 224.469 211.962 225.792ZM222.588 236.352C220.241 236.352 218.385 235.701 217.02 234.4C215.655 233.077 214.972 231.285 214.972 229.024V220.576C214.972 218.357 215.655 216.597 217.02 215.296C218.385 213.995 220.241 213.344 222.588 213.344C224.935 213.344 226.791 213.995 228.156 215.296C229.543 216.597 230.236 218.357 230.236 220.576V229.024C230.236 231.285 229.543 233.077 228.156 234.4C226.791 235.701 224.935 236.352 222.588 236.352ZM222.588 232.48C223.548 232.48 224.305 232.192 224.86 231.616C225.436 231.019 225.724 230.229 225.724 229.248V220.448C225.724 219.467 225.436 218.688 224.86 218.112C224.305 217.515 223.548 217.216 222.588 217.216C221.649 217.216 220.892 217.515 220.316 218.112C219.761 218.688 219.484 219.467 219.484 220.448V229.248C219.484 230.229 219.761 231.019 220.316 231.616C220.892 232.192 221.649 232.48 222.588 232.48ZM240.838 236.352C238.491 236.352 236.635 235.701 235.27 234.4C233.905 233.077 233.222 231.285 233.222 229.024V220.576C233.222 218.357 233.905 216.597 235.27 215.296C236.635 213.995 238.491 213.344 240.838 213.344C243.185 213.344 245.041 213.995 246.406 215.296C247.793 216.597 248.486 218.357 248.486 220.576V229.024C248.486 231.285 247.793 233.077 246.406 234.4C245.041 235.701 243.185 236.352 240.838 236.352ZM240.838 232.48C241.798 232.48 242.555 232.192 243.11 231.616C243.686 231.019 243.974 230.229 243.974 229.248V220.448C243.974 219.467 243.686 218.688 243.11 218.112C242.555 217.515 241.798 217.216 240.838 217.216C239.899 217.216 239.142 217.515 238.566 218.112C238.011 218.688 237.734 219.467 237.734 220.448V229.248C237.734 230.229 238.011 231.019 238.566 231.616C239.142 232.192 239.899 232.48 240.838 232.48ZM252.048 236C251.941 236 251.845 235.968 251.76 235.904C251.696 235.819 251.664 235.723 251.664 235.616V213.984C251.664 213.877 251.696 213.792 251.76 213.728C251.845 213.643 251.941 213.6 252.048 213.6H255.792C255.899 213.6 255.984 213.643 256.048 213.728C256.133 213.792 256.176 213.877 256.176 213.984V224.768C256.176 224.832 256.197 224.875 256.24 224.896C256.283 224.896 256.325 224.875 256.368 224.832L260.72 219.776C260.869 219.627 261.029 219.552 261.2 219.552H265.456C265.669 219.552 265.776 219.627 265.776 219.776C265.776 219.84 265.744 219.925 265.68 220.032L261.616 225.184C261.573 225.269 261.563 225.344 261.584 225.408L266.352 235.552C266.395 235.637 266.416 235.701 266.416 235.744C266.416 235.915 266.299 236 266.064 236H262.128C261.915 236 261.765 235.904 261.68 235.712L258.512 228.224C258.491 228.181 258.448 228.16 258.384 228.16C258.341 228.139 258.309 228.149 258.288 228.192L256.24 230.752C256.197 230.837 256.176 230.901 256.176 230.944V235.616C256.176 235.723 256.133 235.819 256.048 235.904C255.984 235.968 255.899 236 255.792 236H252.048Z" fill="#FA541C"/>
<path d="M281.93 221.336C282.01 221.336 282.074 221.368 282.122 221.432C282.186 221.48 282.218 221.544 282.218 221.624V223.952C282.218 224.032 282.186 224.104 282.122 224.168C282.074 224.216 282.01 224.24 281.93 224.24H278.642C278.562 224.24 278.522 224.28 278.522 224.36V227.6C278.522 227.68 278.49 227.752 278.426 227.816C278.378 227.864 278.314 227.888 278.234 227.888H275.93C275.85 227.888 275.778 227.864 275.714 227.816C275.666 227.752 275.642 227.68 275.642 227.6V224.36C275.642 224.28 275.602 224.24 275.522 224.24H272.234C272.154 224.24 272.082 224.216 272.018 224.168C271.97 224.104 271.946 224.032 271.946 223.952V221.624C271.946 221.544 271.97 221.48 272.018 221.432C272.082 221.368 272.154 221.336 272.234 221.336H275.522C275.602 221.336 275.642 221.296 275.642 221.216V217.904C275.642 217.824 275.666 217.76 275.714 217.712C275.778 217.648 275.85 217.616 275.93 217.616H278.234C278.314 217.616 278.378 217.648 278.426 217.712C278.49 217.76 278.522 217.824 278.522 217.904V221.216C278.522 221.296 278.562 221.336 278.642 221.336H281.93Z" fill="#FA541C"/>
<path d="M184.422 270.098C183.778 270.098 183.199 269.986 182.686 269.762C182.182 269.529 181.785 269.211 181.496 268.81C181.207 268.399 181.057 267.928 181.048 267.396H182.406C182.453 267.853 182.639 268.241 182.966 268.558C183.302 268.866 183.787 269.02 184.422 269.02C185.029 269.02 185.505 268.871 185.85 268.572C186.205 268.264 186.382 267.872 186.382 267.396C186.382 267.023 186.279 266.719 186.074 266.486C185.869 266.253 185.612 266.075 185.304 265.954C184.996 265.833 184.581 265.702 184.058 265.562C183.414 265.394 182.896 265.226 182.504 265.058C182.121 264.89 181.79 264.629 181.51 264.274C181.239 263.91 181.104 263.425 181.104 262.818C181.104 262.286 181.239 261.815 181.51 261.404C181.781 260.993 182.159 260.676 182.644 260.452C183.139 260.228 183.703 260.116 184.338 260.116C185.253 260.116 185.999 260.345 186.578 260.802C187.166 261.259 187.497 261.866 187.572 262.622H186.172C186.125 262.249 185.929 261.922 185.584 261.642C185.239 261.353 184.781 261.208 184.212 261.208C183.68 261.208 183.246 261.348 182.91 261.628C182.574 261.899 182.406 262.281 182.406 262.776C182.406 263.131 182.504 263.42 182.7 263.644C182.905 263.868 183.153 264.041 183.442 264.162C183.741 264.274 184.156 264.405 184.688 264.554C185.332 264.731 185.85 264.909 186.242 265.086C186.634 265.254 186.97 265.52 187.25 265.884C187.53 266.239 187.67 266.724 187.67 267.34C187.67 267.816 187.544 268.264 187.292 268.684C187.04 269.104 186.667 269.445 186.172 269.706C185.677 269.967 185.094 270.098 184.422 270.098ZM196.349 262.328V270H195.075V268.866C194.832 269.258 194.491 269.566 194.053 269.79C193.623 270.005 193.147 270.112 192.625 270.112C192.027 270.112 191.491 269.991 191.015 269.748C190.539 269.496 190.161 269.123 189.881 268.628C189.61 268.133 189.475 267.531 189.475 266.822V262.328H190.735V266.654C190.735 267.41 190.926 267.993 191.309 268.404C191.691 268.805 192.214 269.006 192.877 269.006C193.558 269.006 194.095 268.796 194.487 268.376C194.879 267.956 195.075 267.345 195.075 266.542V262.328H196.349ZM198.024 266.15C198.024 265.357 198.183 264.666 198.5 264.078C198.817 263.481 199.256 263.019 199.816 262.692C200.385 262.365 201.034 262.202 201.762 262.202C202.705 262.202 203.479 262.431 204.086 262.888C204.702 263.345 205.108 263.98 205.304 264.792H203.932C203.801 264.325 203.545 263.957 203.162 263.686C202.789 263.415 202.322 263.28 201.762 263.28C201.034 263.28 200.446 263.532 199.998 264.036C199.55 264.531 199.326 265.235 199.326 266.15C199.326 267.074 199.55 267.788 199.998 268.292C200.446 268.796 201.034 269.048 201.762 269.048C202.322 269.048 202.789 268.917 203.162 268.656C203.535 268.395 203.792 268.021 203.932 267.536H205.304C205.099 268.32 204.688 268.95 204.072 269.426C203.456 269.893 202.686 270.126 201.762 270.126C201.034 270.126 200.385 269.963 199.816 269.636C199.256 269.309 198.817 268.847 198.5 268.25C198.183 267.653 198.024 266.953 198.024 266.15ZM206.528 266.15C206.528 265.357 206.686 264.666 207.004 264.078C207.321 263.481 207.76 263.019 208.32 262.692C208.889 262.365 209.538 262.202 210.266 262.202C211.208 262.202 211.983 262.431 212.59 262.888C213.206 263.345 213.612 263.98 213.808 264.792H212.436C212.305 264.325 212.048 263.957 211.666 263.686C211.292 263.415 210.826 263.28 210.266 263.28C209.538 263.28 208.95 263.532 208.502 264.036C208.054 264.531 207.83 265.235 207.83 266.15C207.83 267.074 208.054 267.788 208.502 268.292C208.95 268.796 209.538 269.048 210.266 269.048C210.826 269.048 211.292 268.917 211.666 268.656C212.039 268.395 212.296 268.021 212.436 267.536H213.808C213.602 268.32 213.192 268.95 212.576 269.426C211.96 269.893 211.19 270.126 210.266 270.126C209.538 270.126 208.889 269.963 208.32 269.636C207.76 269.309 207.321 268.847 207.004 268.25C206.686 267.653 206.528 266.953 206.528 266.15ZM222.508 265.87C222.508 266.113 222.494 266.369 222.466 266.64H216.334C216.38 267.396 216.637 267.989 217.104 268.418C217.58 268.838 218.154 269.048 218.826 269.048C219.376 269.048 219.834 268.922 220.198 268.67C220.571 268.409 220.832 268.063 220.982 267.634H222.354C222.148 268.371 221.738 268.973 221.122 269.44C220.506 269.897 219.74 270.126 218.826 270.126C218.098 270.126 217.444 269.963 216.866 269.636C216.296 269.309 215.848 268.847 215.522 268.25C215.195 267.643 215.032 266.943 215.032 266.15C215.032 265.357 215.19 264.661 215.508 264.064C215.825 263.467 216.268 263.009 216.838 262.692C217.416 262.365 218.079 262.202 218.826 262.202C219.554 262.202 220.198 262.361 220.758 262.678C221.318 262.995 221.747 263.434 222.046 263.994C222.354 264.545 222.508 265.17 222.508 265.87ZM221.192 265.604C221.192 265.119 221.084 264.703 220.87 264.358C220.655 264.003 220.361 263.737 219.988 263.56C219.624 263.373 219.218 263.28 218.77 263.28C218.126 263.28 217.575 263.485 217.118 263.896C216.67 264.307 216.413 264.876 216.348 265.604H221.192ZM226.905 270.126C226.317 270.126 225.79 270.028 225.323 269.832C224.857 269.627 224.488 269.347 224.217 268.992C223.947 268.628 223.797 268.213 223.769 267.746H225.085C225.123 268.129 225.3 268.441 225.617 268.684C225.944 268.927 226.369 269.048 226.891 269.048C227.377 269.048 227.759 268.941 228.039 268.726C228.319 268.511 228.459 268.241 228.459 267.914C228.459 267.578 228.31 267.331 228.011 267.172C227.713 267.004 227.251 266.841 226.625 266.682C226.056 266.533 225.589 266.383 225.225 266.234C224.871 266.075 224.563 265.847 224.301 265.548C224.049 265.24 223.923 264.839 223.923 264.344C223.923 263.952 224.04 263.593 224.273 263.266C224.507 262.939 224.838 262.683 225.267 262.496C225.697 262.3 226.187 262.202 226.737 262.202C227.587 262.202 228.273 262.417 228.795 262.846C229.318 263.275 229.598 263.863 229.635 264.61H228.361C228.333 264.209 228.17 263.887 227.871 263.644C227.582 263.401 227.19 263.28 226.695 263.28C226.238 263.28 225.874 263.378 225.603 263.574C225.333 263.77 225.197 264.027 225.197 264.344C225.197 264.596 225.277 264.806 225.435 264.974C225.603 265.133 225.809 265.263 226.051 265.366C226.303 265.459 226.649 265.567 227.087 265.688C227.638 265.837 228.086 265.987 228.431 266.136C228.777 266.276 229.071 266.491 229.313 266.78C229.565 267.069 229.696 267.447 229.705 267.914C229.705 268.334 229.589 268.712 229.355 269.048C229.122 269.384 228.791 269.65 228.361 269.846C227.941 270.033 227.456 270.126 226.905 270.126ZM234.22 270.126C233.632 270.126 233.104 270.028 232.638 269.832C232.171 269.627 231.802 269.347 231.532 268.992C231.261 268.628 231.112 268.213 231.084 267.746H232.4C232.437 268.129 232.614 268.441 232.932 268.684C233.258 268.927 233.683 269.048 234.206 269.048C234.691 269.048 235.074 268.941 235.354 268.726C235.634 268.511 235.774 268.241 235.774 267.914C235.774 267.578 235.624 267.331 235.326 267.172C235.027 267.004 234.565 266.841 233.94 266.682C233.37 266.533 232.904 266.383 232.54 266.234C232.185 266.075 231.877 265.847 231.616 265.548C231.364 265.24 231.238 264.839 231.238 264.344C231.238 263.952 231.354 263.593 231.588 263.266C231.821 262.939 232.152 262.683 232.582 262.496C233.011 262.3 233.501 262.202 234.052 262.202C234.901 262.202 235.587 262.417 236.11 262.846C236.632 263.275 236.912 263.863 236.95 264.61H235.676C235.648 264.209 235.484 263.887 235.186 263.644C234.896 263.401 234.504 263.28 234.01 263.28C233.552 263.28 233.188 263.378 232.918 263.574C232.647 263.77 232.512 264.027 232.512 264.344C232.512 264.596 232.591 264.806 232.75 264.974C232.918 265.133 233.123 265.263 233.366 265.366C233.618 265.459 233.963 265.567 234.402 265.688C234.952 265.837 235.4 265.987 235.746 266.136C236.091 266.276 236.385 266.491 236.628 266.78C236.88 267.069 237.01 267.447 237.02 267.914C237.02 268.334 236.903 268.712 236.67 269.048C236.436 269.384 236.105 269.65 235.676 269.846C235.256 270.033 234.77 270.126 234.22 270.126ZM241.94 263.378H240.33V270H239.056V263.378H238.062V262.328H239.056V261.782C239.056 260.923 239.276 260.298 239.714 259.906C240.162 259.505 240.876 259.304 241.856 259.304V260.368C241.296 260.368 240.9 260.48 240.666 260.704C240.442 260.919 240.33 261.278 240.33 261.782V262.328H241.94V263.378ZM250.23 262.328V270H248.956V268.866C248.713 269.258 248.372 269.566 247.934 269.79C247.504 270.005 247.028 270.112 246.506 270.112C245.908 270.112 245.372 269.991 244.896 269.748C244.42 269.496 244.042 269.123 243.762 268.628C243.491 268.133 243.356 267.531 243.356 266.822V262.328H244.616V266.654C244.616 267.41 244.807 267.993 245.19 268.404C245.572 268.805 246.095 269.006 246.758 269.006C247.439 269.006 247.976 268.796 248.368 268.376C248.76 267.956 248.956 267.345 248.956 266.542V262.328H250.23ZM253.655 259.64V270H252.381V259.64H253.655ZM267.076 260.242V270H265.802V265.576H260.832V270H259.558V260.242H260.832V264.526H265.802V260.242H267.076ZM269.91 261.082C269.667 261.082 269.462 260.998 269.294 260.83C269.126 260.662 269.042 260.457 269.042 260.214C269.042 259.971 269.126 259.766 269.294 259.598C269.462 259.43 269.667 259.346 269.91 259.346C270.143 259.346 270.339 259.43 270.498 259.598C270.666 259.766 270.75 259.971 270.75 260.214C270.75 260.457 270.666 260.662 270.498 260.83C270.339 260.998 270.143 261.082 269.91 261.082ZM270.526 262.328V270H269.252V262.328H270.526ZM273.971 263.574C274.195 263.135 274.512 262.795 274.923 262.552C275.343 262.309 275.852 262.188 276.449 262.188V263.504H276.113C274.685 263.504 273.971 264.279 273.971 265.828V270H272.697V262.328H273.971V263.574ZM278.578 261.082C278.335 261.082 278.13 260.998 277.962 260.83C277.794 260.662 277.71 260.457 277.71 260.214C277.71 259.971 277.794 259.766 277.962 259.598C278.13 259.43 278.335 259.346 278.578 259.346C278.811 259.346 279.007 259.43 279.166 259.598C279.334 259.766 279.418 259.971 279.418 260.214C279.418 260.457 279.334 260.662 279.166 260.83C279.007 260.998 278.811 261.082 278.578 261.082ZM279.194 262.328V270H277.92V262.328H279.194ZM285.103 262.188C286.036 262.188 286.792 262.473 287.371 263.042C287.95 263.602 288.239 264.414 288.239 265.478V270H286.979V265.66C286.979 264.895 286.788 264.311 286.405 263.91C286.022 263.499 285.5 263.294 284.837 263.294C284.165 263.294 283.628 263.504 283.227 263.924C282.835 264.344 282.639 264.955 282.639 265.758V270H281.365V262.328H282.639V263.42C282.891 263.028 283.232 262.725 283.661 262.51C284.1 262.295 284.58 262.188 285.103 262.188ZM293.484 262.202C294.147 262.202 294.726 262.347 295.22 262.636C295.724 262.925 296.098 263.289 296.34 263.728V262.328H297.628V270.168C297.628 270.868 297.479 271.489 297.18 272.03C296.882 272.581 296.452 273.01 295.892 273.318C295.342 273.626 294.698 273.78 293.96 273.78C292.952 273.78 292.112 273.542 291.44 273.066C290.768 272.59 290.372 271.941 290.25 271.12H291.51C291.65 271.587 291.94 271.96 292.378 272.24C292.817 272.529 293.344 272.674 293.96 272.674C294.66 272.674 295.23 272.455 295.668 272.016C296.116 271.577 296.34 270.961 296.34 270.168V268.558C296.088 269.006 295.715 269.379 295.22 269.678C294.726 269.977 294.147 270.126 293.484 270.126C292.803 270.126 292.182 269.958 291.622 269.622C291.072 269.286 290.638 268.815 290.32 268.208C290.003 267.601 289.844 266.911 289.844 266.136C289.844 265.352 290.003 264.666 290.32 264.078C290.638 263.481 291.072 263.019 291.622 262.692C292.182 262.365 292.803 262.202 293.484 262.202ZM296.34 266.15C296.34 265.571 296.224 265.067 295.99 264.638C295.757 264.209 295.44 263.882 295.038 263.658C294.646 263.425 294.212 263.308 293.736 263.308C293.26 263.308 292.826 263.42 292.434 263.644C292.042 263.868 291.73 264.195 291.496 264.624C291.263 265.053 291.146 265.557 291.146 266.136C291.146 266.724 291.263 267.237 291.496 267.676C291.73 268.105 292.042 268.437 292.434 268.67C292.826 268.894 293.26 269.006 293.736 269.006C294.212 269.006 294.646 268.894 295.038 268.67C295.44 268.437 295.757 268.105 295.99 267.676C296.224 267.237 296.34 266.729 296.34 266.15Z" fill="#919EAB"/>
<path d="M57.706 347.936C57.6633 347.979 57.6527 348.021 57.674 348.064C57.6953 348.107 57.738 348.128 57.802 348.128H66.474C66.5807 348.128 66.666 348.171 66.73 348.256C66.8153 348.32 66.858 348.405 66.858 348.512V351.616C66.858 351.723 66.8153 351.819 66.73 351.904C66.666 351.968 66.5807 352 66.474 352H52.074C51.9673 352 51.8713 351.968 51.786 351.904C51.722 351.819 51.69 351.723 51.69 351.616V348.672C51.69 348.48 51.754 348.32 51.882 348.192C52.9273 347.168 53.994 346.059 55.082 344.864C56.17 343.648 56.8527 342.891 57.13 342.592C57.7273 341.888 58.3353 341.216 58.954 340.576C60.8953 338.421 61.866 336.821 61.866 335.776C61.866 335.029 61.5993 334.421 61.066 333.952C60.5327 333.461 59.8393 333.216 58.986 333.216C58.1327 333.216 57.4393 333.461 56.906 333.952C56.3727 334.421 56.106 335.051 56.106 335.84V336.64C56.106 336.747 56.0633 336.843 55.978 336.928C55.914 336.992 55.8287 337.024 55.722 337.024H51.946C51.8393 337.024 51.7433 336.992 51.658 336.928C51.594 336.843 51.562 336.747 51.562 336.64V335.136C51.626 333.984 51.9887 332.971 52.65 332.096C53.3113 331.2 54.186 330.517 55.274 330.048C56.3833 329.579 57.6207 329.344 58.986 329.344C60.5007 329.344 61.8127 329.632 62.922 330.208C64.0527 330.763 64.9167 331.52 65.514 332.48C66.1327 333.44 66.442 334.507 66.442 335.68C66.442 336.576 66.218 337.493 65.77 338.432C65.322 339.371 64.65 340.384 63.754 341.472C63.0927 342.304 62.378 343.125 61.61 343.936C60.842 344.747 59.7007 345.92 58.186 347.456L57.706 347.936ZM83.8683 341.792C84.1883 342.837 84.3483 343.851 84.3483 344.832C84.3483 345.92 84.1776 346.901 83.8363 347.776C83.3456 349.141 82.4816 350.229 81.2443 351.04C80.0069 351.829 78.5563 352.224 76.8923 352.224C75.2709 352.224 73.8416 351.84 72.6043 351.072C71.3883 350.283 70.5243 349.216 70.0123 347.872C69.7989 347.317 69.6389 346.731 69.5323 346.112V346.048C69.5323 345.813 69.6603 345.696 69.9163 345.696H73.7883C74.0016 345.696 74.1403 345.813 74.2043 346.048C74.2256 346.176 74.2576 346.283 74.3003 346.368C74.3429 346.453 74.3749 346.528 74.3963 346.592C74.6096 347.147 74.9296 347.573 75.3563 347.872C75.7829 348.171 76.2843 348.32 76.8603 348.32C77.4576 348.32 77.9803 348.16 78.4283 347.84C78.8763 347.52 79.2069 347.072 79.4203 346.496C79.6336 346.069 79.7403 345.515 79.7403 344.832C79.7403 344.213 79.6443 343.659 79.4523 343.168C79.3029 342.613 79.0043 342.187 78.5563 341.888C78.1083 341.589 77.5856 341.44 76.9883 341.44C76.3909 341.44 75.8363 341.579 75.3243 341.856C74.8123 342.133 74.4709 342.496 74.3003 342.944C74.2363 343.157 74.0976 343.264 73.8843 343.264H69.9483C69.8416 343.264 69.7456 343.232 69.6603 343.168C69.5963 343.083 69.5643 342.987 69.5643 342.88V329.984C69.5643 329.877 69.5963 329.792 69.6603 329.728C69.7456 329.643 69.8416 329.6 69.9483 329.6H83.1643C83.2709 329.6 83.3563 329.643 83.4203 329.728C83.5056 329.792 83.5483 329.877 83.5483 329.984V333.088C83.5483 333.195 83.5056 333.291 83.4203 333.376C83.3563 333.44 83.2709 333.472 83.1643 333.472H74.2363C74.1296 333.472 74.0763 333.525 74.0763 333.632L74.0443 338.368C74.0443 338.517 74.1083 338.549 74.2363 338.464C75.1963 337.845 76.3056 337.536 77.5642 337.536C79.0576 337.536 80.3589 337.92 81.4683 338.688C82.5989 339.435 83.3989 340.469 83.8683 341.792ZM94.4943 352.352C92.1476 352.352 90.2916 351.701 88.9263 350.4C87.5609 349.077 86.8783 347.285 86.8783 345.024V336.576C86.8783 334.357 87.5609 332.597 88.9263 331.296C90.2916 329.995 92.1476 329.344 94.4943 329.344C96.8409 329.344 98.6969 329.995 100.062 331.296C101.449 332.597 102.142 334.357 102.142 336.576V345.024C102.142 347.285 101.449 349.077 100.062 350.4C98.6969 351.701 96.8409 352.352 94.4943 352.352ZM94.4943 348.48C95.4543 348.48 96.2116 348.192 96.7663 347.616C97.3423 347.019 97.6303 346.229 97.6303 345.248V336.448C97.6303 335.467 97.3423 334.688 96.7663 334.112C96.2116 333.515 95.4543 333.216 94.4943 333.216C93.5556 333.216 92.7983 333.515 92.2223 334.112C91.6676 334.688 91.3903 335.467 91.3903 336.448V345.248C91.3903 346.229 91.6676 347.019 92.2223 347.616C92.7983 348.192 93.5556 348.48 94.4943 348.48Z" fill="#FA541C"/>
<path d="M118.93 337.336C119.01 337.336 119.074 337.368 119.122 337.432C119.186 337.48 119.218 337.544 119.218 337.624V339.952C119.218 340.032 119.186 340.104 119.122 340.168C119.074 340.216 119.01 340.24 118.93 340.24H115.642C115.562 340.24 115.522 340.28 115.522 340.36V343.6C115.522 343.68 115.49 343.752 115.426 343.816C115.378 343.864 115.314 343.888 115.234 343.888H112.93C112.85 343.888 112.778 343.864 112.714 343.816C112.666 343.752 112.642 343.68 112.642 343.6V340.36C112.642 340.28 112.602 340.24 112.522 340.24H109.234C109.154 340.24 109.082 340.216 109.018 340.168C108.97 340.104 108.946 340.032 108.946 339.952V337.624C108.946 337.544 108.97 337.48 109.018 337.432C109.082 337.368 109.154 337.336 109.234 337.336H112.522C112.602 337.336 112.642 337.296 112.642 337.216V333.904C112.642 333.824 112.666 333.76 112.714 333.712C112.778 333.648 112.85 333.616 112.93 333.616H115.234C115.314 333.616 115.378 333.648 115.426 333.712C115.49 333.76 115.522 333.824 115.522 333.904V337.216C115.522 337.296 115.562 337.336 115.642 337.336H118.93Z" fill="#FA541C"/>
<path d="M63.352 379.098C63.352 379.91 63.072 380.587 62.512 381.128C61.9613 381.66 61.1167 381.926 59.978 381.926H58.102V386H56.828V376.242H59.978C61.0793 376.242 61.9147 376.508 62.484 377.04C63.0627 377.572 63.352 378.258 63.352 379.098ZM59.978 380.876C60.6873 380.876 61.21 380.722 61.546 380.414C61.882 380.106 62.05 379.667 62.05 379.098C62.05 377.894 61.3593 377.292 59.978 377.292H58.102V380.876H59.978ZM64.4594 382.136C64.4594 381.352 64.6181 380.666 64.9354 380.078C65.2528 379.481 65.6868 379.019 66.2374 378.692C66.7974 378.365 67.4181 378.202 68.0994 378.202C68.7714 378.202 69.3548 378.347 69.8494 378.636C70.3441 378.925 70.7128 379.289 70.9554 379.728V378.328H72.2434V386H70.9554V384.572C70.7034 385.02 70.3254 385.393 69.8214 385.692C69.3268 385.981 68.7481 386.126 68.0854 386.126C67.4041 386.126 66.7881 385.958 66.2374 385.622C65.6868 385.286 65.2528 384.815 64.9354 384.208C64.6181 383.601 64.4594 382.911 64.4594 382.136ZM70.9554 382.15C70.9554 381.571 70.8388 381.067 70.6054 380.638C70.3721 380.209 70.0548 379.882 69.6534 379.658C69.2614 379.425 68.8274 379.308 68.3514 379.308C67.8754 379.308 67.4414 379.42 67.0494 379.644C66.6574 379.868 66.3448 380.195 66.1114 380.624C65.8781 381.053 65.7614 381.557 65.7614 382.136C65.7614 382.724 65.8781 383.237 66.1114 383.676C66.3448 384.105 66.6574 384.437 67.0494 384.67C67.4414 384.894 67.8754 385.006 68.3514 385.006C68.8274 385.006 69.2614 384.894 69.6534 384.67C70.0548 384.437 70.3721 384.105 70.6054 383.676C70.8388 383.237 70.9554 382.729 70.9554 382.15ZM75.6704 379.574C75.8944 379.135 76.2117 378.795 76.6224 378.552C77.0424 378.309 77.551 378.188 78.1484 378.188V379.504H77.8124C76.3844 379.504 75.6704 380.279 75.6704 381.828V386H74.3964V378.328H75.6704V379.574ZM81.173 379.378V383.9C81.173 384.273 81.2523 384.539 81.411 384.698C81.5697 384.847 81.845 384.922 82.237 384.922H83.175V386H82.027C81.3177 386 80.7857 385.837 80.431 385.51C80.0763 385.183 79.899 384.647 79.899 383.9V379.378H78.905V378.328H79.899V376.396H81.173V378.328H83.175V379.378H81.173ZM88.4566 378.188C89.39 378.188 90.146 378.473 90.7246 379.042C91.3033 379.602 91.5926 380.414 91.5926 381.478V386H90.3326V381.66C90.3326 380.895 90.1413 380.311 89.7586 379.91C89.376 379.499 88.8533 379.294 88.1906 379.294C87.5186 379.294 86.982 379.504 86.5806 379.924C86.1886 380.344 85.9926 380.955 85.9926 381.758V386H84.7186V378.328H85.9926V379.42C86.2446 379.028 86.5853 378.725 87.0146 378.51C87.4533 378.295 87.934 378.188 88.4566 378.188ZM100.674 381.87C100.674 382.113 100.66 382.369 100.632 382.64H94.4997C94.5464 383.396 94.803 383.989 95.2697 384.418C95.7457 384.838 96.3197 385.048 96.9917 385.048C97.5424 385.048 97.9997 384.922 98.3637 384.67C98.737 384.409 98.9984 384.063 99.1477 383.634H100.52C100.314 384.371 99.9037 384.973 99.2877 385.44C98.6717 385.897 97.9064 386.126 96.9917 386.126C96.2637 386.126 95.6104 385.963 95.0317 385.636C94.4624 385.309 94.0144 384.847 93.6877 384.25C93.361 383.643 93.1977 382.943 93.1977 382.15C93.1977 381.357 93.3564 380.661 93.6737 380.064C93.991 379.467 94.4344 379.009 95.0037 378.692C95.5824 378.365 96.245 378.202 96.9917 378.202C97.7197 378.202 98.3637 378.361 98.9237 378.678C99.4837 378.995 99.913 379.434 100.212 379.994C100.52 380.545 100.674 381.17 100.674 381.87ZM99.3577 381.604C99.3577 381.119 99.2504 380.703 99.0357 380.358C98.821 380.003 98.527 379.737 98.1537 379.56C97.7897 379.373 97.3837 379.28 96.9357 379.28C96.2917 379.28 95.741 379.485 95.2837 379.896C94.8357 380.307 94.579 380.876 94.5137 381.604H99.3577ZM103.629 379.574C103.853 379.135 104.171 378.795 104.581 378.552C105.001 378.309 105.51 378.188 106.107 378.188V379.504H105.771C104.343 379.504 103.629 380.279 103.629 381.828V386H102.355V378.328H103.629V379.574ZM110.294 386.126C109.706 386.126 109.179 386.028 108.712 385.832C108.245 385.627 107.877 385.347 107.606 384.992C107.335 384.628 107.186 384.213 107.158 383.746H108.474C108.511 384.129 108.689 384.441 109.006 384.684C109.333 384.927 109.757 385.048 110.28 385.048C110.765 385.048 111.148 384.941 111.428 384.726C111.708 384.511 111.848 384.241 111.848 383.914C111.848 383.578 111.699 383.331 111.4 383.172C111.101 383.004 110.639 382.841 110.014 382.682C109.445 382.533 108.978 382.383 108.614 382.234C108.259 382.075 107.951 381.847 107.69 381.548C107.438 381.24 107.312 380.839 107.312 380.344C107.312 379.952 107.429 379.593 107.662 379.266C107.895 378.939 108.227 378.683 108.656 378.496C109.085 378.3 109.575 378.202 110.126 378.202C110.975 378.202 111.661 378.417 112.184 378.846C112.707 379.275 112.987 379.863 113.024 380.61H111.75C111.722 380.209 111.559 379.887 111.26 379.644C110.971 379.401 110.579 379.28 110.084 379.28C109.627 379.28 109.263 379.378 108.992 379.574C108.721 379.77 108.586 380.027 108.586 380.344C108.586 380.596 108.665 380.806 108.824 380.974C108.992 381.133 109.197 381.263 109.44 381.366C109.692 381.459 110.037 381.567 110.476 381.688C111.027 381.837 111.475 381.987 111.82 382.136C112.165 382.276 112.459 382.491 112.702 382.78C112.954 383.069 113.085 383.447 113.094 383.914C113.094 384.334 112.977 384.712 112.744 385.048C112.511 385.384 112.179 385.65 111.75 385.846C111.33 386.033 110.845 386.126 110.294 386.126Z" fill="#919EAB"/>
<path d="M200.55 329.696C200.657 329.632 200.817 329.6 201.03 329.6H204.902C205.009 329.6 205.094 329.643 205.158 329.728C205.243 329.792 205.286 329.877 205.286 329.984V351.616C205.286 351.723 205.243 351.819 205.158 351.904C205.094 351.968 205.009 352 204.902 352H201.158C201.051 352 200.955 351.968 200.87 351.904C200.806 351.819 200.774 351.723 200.774 351.616V334.08C200.774 334.037 200.753 333.995 200.71 333.952C200.667 333.909 200.625 333.899 200.582 333.92L197.414 334.784L197.286 334.816C197.094 334.816 196.998 334.699 196.998 334.464L196.902 331.712C196.902 331.499 196.998 331.349 197.19 331.264L200.55 329.696ZM208.727 355.136C208.471 355.136 208.353 354.997 208.375 354.72L209.431 347.296C209.452 347.061 209.591 346.944 209.847 346.944H213.111C213.388 346.944 213.495 347.083 213.431 347.36L211.447 354.816C211.383 355.029 211.233 355.136 210.999 355.136H208.727ZM231.243 341.792C231.563 342.837 231.723 343.851 231.723 344.832C231.723 345.92 231.553 346.901 231.211 347.776C230.721 349.141 229.857 350.229 228.619 351.04C227.382 351.829 225.931 352.224 224.267 352.224C222.646 352.224 221.217 351.84 219.979 351.072C218.763 350.283 217.899 349.216 217.387 347.872C217.174 347.317 217.014 346.731 216.907 346.112V346.048C216.907 345.813 217.035 345.696 217.291 345.696H221.163C221.377 345.696 221.515 345.813 221.579 346.048C221.601 346.176 221.633 346.283 221.675 346.368C221.718 346.453 221.75 346.528 221.771 346.592C221.985 347.147 222.305 347.573 222.731 347.872C223.158 348.171 223.659 348.32 224.235 348.32C224.833 348.32 225.355 348.16 225.803 347.84C226.251 347.52 226.582 347.072 226.795 346.496C227.009 346.069 227.115 345.515 227.115 344.832C227.115 344.213 227.019 343.659 226.827 343.168C226.678 342.613 226.379 342.187 225.931 341.888C225.483 341.589 224.961 341.44 224.363 341.44C223.766 341.44 223.211 341.579 222.699 341.856C222.187 342.133 221.846 342.496 221.675 342.944C221.611 343.157 221.473 343.264 221.259 343.264H217.323C217.217 343.264 217.121 343.232 217.035 343.168C216.971 343.083 216.939 342.987 216.939 342.88V329.984C216.939 329.877 216.971 329.792 217.035 329.728C217.121 329.643 217.217 329.6 217.323 329.6H230.539C230.646 329.6 230.731 329.643 230.795 329.728C230.881 329.792 230.923 329.877 230.923 329.984V333.088C230.923 333.195 230.881 333.291 230.795 333.376C230.731 333.44 230.646 333.472 230.539 333.472H221.611C221.505 333.472 221.451 333.525 221.451 333.632L221.419 338.368C221.419 338.517 221.483 338.549 221.611 338.464C222.571 337.845 223.681 337.536 224.939 337.536C226.433 337.536 227.734 337.92 228.843 338.688C229.974 339.435 230.774 340.469 231.243 341.792ZM248.141 341.152C248.653 342.112 248.909 343.339 248.909 344.832C248.909 346.069 248.707 347.179 248.301 348.16C247.747 349.419 246.883 350.411 245.709 351.136C244.536 351.861 243.149 352.224 241.549 352.224C239.907 352.224 238.488 351.851 237.293 351.104C236.099 350.336 235.235 349.28 234.701 347.936C234.317 346.997 234.125 345.952 234.125 344.8V335.168C234.125 334.016 234.424 333.003 235.021 332.128C235.64 331.232 236.493 330.549 237.581 330.08C238.669 329.589 239.917 329.344 241.325 329.344C242.712 329.344 243.939 329.589 245.005 330.08C246.072 330.549 246.893 331.221 247.469 332.096C248.067 332.949 248.365 333.941 248.365 335.072V335.968C248.365 336.075 248.323 336.171 248.237 336.256C248.173 336.32 248.088 336.352 247.981 336.352H244.237C244.131 336.352 244.035 336.32 243.949 336.256C243.885 336.171 243.853 336.075 243.853 335.968V335.68C243.853 334.976 243.619 334.389 243.149 333.92C242.68 333.451 242.072 333.216 241.325 333.216C240.536 333.216 239.885 333.461 239.373 333.952C238.883 334.421 238.637 335.029 238.637 335.776V338.784C238.637 338.848 238.659 338.891 238.701 338.912C238.744 338.912 238.787 338.891 238.829 338.848C239.704 338.101 240.867 337.728 242.317 337.728C243.597 337.728 244.739 338.027 245.741 338.624C246.765 339.2 247.565 340.043 248.141 341.152ZM243.917 346.912C244.237 346.357 244.397 345.685 244.397 344.896C244.397 344.043 244.227 343.339 243.885 342.784C243.352 341.931 242.573 341.504 241.549 341.504C240.397 341.504 239.597 341.941 239.149 342.816C238.829 343.371 238.669 344.085 238.669 344.96C238.669 345.728 238.808 346.379 239.085 346.912C239.555 347.851 240.365 348.32 241.517 348.32C242.627 348.32 243.427 347.851 243.917 346.912ZM252.017 352C251.91 352 251.814 351.968 251.729 351.904C251.665 351.819 251.633 351.723 251.633 351.616V329.984C251.633 329.877 251.665 329.792 251.729 329.728C251.814 329.643 251.91 329.6 252.017 329.6H255.761C255.867 329.6 255.953 329.643 256.017 329.728C256.102 329.792 256.145 329.877 256.145 329.984V340.768C256.145 340.832 256.166 340.875 256.209 340.896C256.251 340.896 256.294 340.875 256.337 340.832L260.689 335.776C260.838 335.627 260.998 335.552 261.169 335.552H265.425C265.638 335.552 265.745 335.627 265.745 335.776C265.745 335.84 265.713 335.925 265.649 336.032L261.585 341.184C261.542 341.269 261.531 341.344 261.553 341.408L266.321 351.552C266.363 351.637 266.385 351.701 266.385 351.744C266.385 351.915 266.267 352 266.033 352H262.097C261.883 352 261.734 351.904 261.649 351.712L258.481 344.224C258.459 344.181 258.417 344.16 258.353 344.16C258.31 344.139 258.278 344.149 258.257 344.192L256.209 346.752C256.166 346.837 256.145 346.901 256.145 346.944V351.616C256.145 351.723 256.102 351.819 256.017 351.904C255.953 351.968 255.867 352 255.761 352H252.017Z" fill="#FA541C"/>
<path d="M282.43 337.336C282.51 337.336 282.574 337.368 282.622 337.432C282.686 337.48 282.718 337.544 282.718 337.624V339.952C282.718 340.032 282.686 340.104 282.622 340.168C282.574 340.216 282.51 340.24 282.43 340.24H279.142C279.062 340.24 279.022 340.28 279.022 340.36V343.6C279.022 343.68 278.99 343.752 278.926 343.816C278.878 343.864 278.814 343.888 278.734 343.888H276.43C276.35 343.888 276.278 343.864 276.214 343.816C276.166 343.752 276.142 343.68 276.142 343.6V340.36C276.142 340.28 276.102 340.24 276.022 340.24H272.734C272.654 340.24 272.582 340.216 272.518 340.168C272.47 340.104 272.446 340.032 272.446 339.952V337.624C272.446 337.544 272.47 337.48 272.518 337.432C272.582 337.368 272.654 337.336 272.734 337.336H276.022C276.102 337.336 276.142 337.296 276.142 337.216V333.904C276.142 333.824 276.166 333.76 276.214 333.712C276.278 333.648 276.35 333.616 276.43 333.616H278.734C278.814 333.616 278.878 333.648 278.926 333.712C278.99 333.76 279.022 333.824 279.022 333.904V337.216C279.022 337.296 279.062 337.336 279.142 337.336H282.43Z" fill="#FA541C"/>
<path d="M207.602 377.278V380.54H211.158V381.59H207.602V384.95H211.578V386H206.328V376.228H211.578V377.278H207.602ZM222.732 378.188C223.329 378.188 223.861 378.314 224.328 378.566C224.794 378.809 225.163 379.177 225.434 379.672C225.704 380.167 225.84 380.769 225.84 381.478V386H224.58V381.66C224.58 380.895 224.388 380.311 224.006 379.91C223.632 379.499 223.124 379.294 222.48 379.294C221.817 379.294 221.29 379.509 220.898 379.938C220.506 380.358 220.31 380.969 220.31 381.772V386H219.05V381.66C219.05 380.895 218.858 380.311 218.476 379.91C218.102 379.499 217.594 379.294 216.95 379.294C216.287 379.294 215.76 379.509 215.368 379.938C214.976 380.358 214.78 380.969 214.78 381.772V386H213.506V378.328H214.78V379.434C215.032 379.033 215.368 378.725 215.788 378.51C216.217 378.295 216.688 378.188 217.202 378.188C217.846 378.188 218.415 378.333 218.91 378.622C219.404 378.911 219.773 379.336 220.016 379.896C220.23 379.355 220.585 378.935 221.08 378.636C221.574 378.337 222.125 378.188 222.732 378.188ZM229.204 379.742C229.456 379.303 229.829 378.939 230.324 378.65C230.828 378.351 231.411 378.202 232.074 378.202C232.755 378.202 233.371 378.365 233.922 378.692C234.482 379.019 234.92 379.481 235.238 380.078C235.555 380.666 235.714 381.352 235.714 382.136C235.714 382.911 235.555 383.601 235.238 384.208C234.92 384.815 234.482 385.286 233.922 385.622C233.371 385.958 232.755 386.126 232.074 386.126C231.42 386.126 230.842 385.981 230.338 385.692C229.843 385.393 229.465 385.025 229.204 384.586V389.64H227.93V378.328H229.204V379.742ZM234.412 382.136C234.412 381.557 234.295 381.053 234.062 380.624C233.828 380.195 233.511 379.868 233.11 379.644C232.718 379.42 232.284 379.308 231.808 379.308C231.341 379.308 230.907 379.425 230.506 379.658C230.114 379.882 229.796 380.213 229.554 380.652C229.32 381.081 229.204 381.581 229.204 382.15C229.204 382.729 229.32 383.237 229.554 383.676C229.796 384.105 230.114 384.437 230.506 384.67C230.907 384.894 231.341 385.006 231.808 385.006C232.284 385.006 232.718 384.894 233.11 384.67C233.511 384.437 233.828 384.105 234.062 383.676C234.295 383.237 234.412 382.724 234.412 382.136ZM238.665 375.64V386H237.391V375.64H238.665ZM244.182 386.126C243.463 386.126 242.81 385.963 242.222 385.636C241.643 385.309 241.186 384.847 240.85 384.25C240.523 383.643 240.36 382.943 240.36 382.15C240.36 381.366 240.528 380.675 240.864 380.078C241.209 379.471 241.676 379.009 242.264 378.692C242.852 378.365 243.51 378.202 244.238 378.202C244.966 378.202 245.624 378.365 246.212 378.692C246.8 379.009 247.262 379.467 247.598 380.064C247.943 380.661 248.116 381.357 248.116 382.15C248.116 382.943 247.938 383.643 247.584 384.25C247.238 384.847 246.767 385.309 246.17 385.636C245.572 385.963 244.91 386.126 244.182 386.126ZM244.182 385.006C244.639 385.006 245.068 384.899 245.47 384.684C245.871 384.469 246.193 384.147 246.436 383.718C246.688 383.289 246.814 382.766 246.814 382.15C246.814 381.534 246.692 381.011 246.45 380.582C246.207 380.153 245.89 379.835 245.498 379.63C245.106 379.415 244.681 379.308 244.224 379.308C243.757 379.308 243.328 379.415 242.936 379.63C242.553 379.835 242.245 380.153 242.012 380.582C241.778 381.011 241.662 381.534 241.662 382.15C241.662 382.775 241.774 383.303 241.998 383.732C242.231 384.161 242.539 384.483 242.922 384.698C243.304 384.903 243.724 385.006 244.182 385.006ZM256.399 378.328L251.779 389.612H250.463L251.975 385.916L248.881 378.328H250.295L252.703 384.544L255.083 378.328H256.399ZM264.68 381.87C264.68 382.113 264.666 382.369 264.638 382.64H258.506C258.552 383.396 258.809 383.989 259.276 384.418C259.752 384.838 260.326 385.048 260.998 385.048C261.548 385.048 262.006 384.922 262.37 384.67C262.743 384.409 263.004 384.063 263.154 383.634H264.526C264.32 384.371 263.91 384.973 263.294 385.44C262.678 385.897 261.912 386.126 260.998 386.126C260.27 386.126 259.616 385.963 259.038 385.636C258.468 385.309 258.02 384.847 257.694 384.25C257.367 383.643 257.204 382.943 257.204 382.15C257.204 381.357 257.362 380.661 257.68 380.064C257.997 379.467 258.44 379.009 259.01 378.692C259.588 378.365 260.251 378.202 260.998 378.202C261.726 378.202 262.37 378.361 262.93 378.678C263.49 378.995 263.919 379.434 264.218 379.994C264.526 380.545 264.68 381.17 264.68 381.87ZM263.364 381.604C263.364 381.119 263.256 380.703 263.042 380.358C262.827 380.003 262.533 379.737 262.16 379.56C261.796 379.373 261.39 379.28 260.942 379.28C260.298 379.28 259.747 379.485 259.29 379.896C258.842 380.307 258.585 380.876 258.52 381.604H263.364ZM273.361 381.87C273.361 382.113 273.347 382.369 273.319 382.64H267.187C267.234 383.396 267.491 383.989 267.957 384.418C268.433 384.838 269.007 385.048 269.679 385.048C270.23 385.048 270.687 384.922 271.051 384.67C271.425 384.409 271.686 384.063 271.835 383.634H273.207C273.002 384.371 272.591 384.973 271.975 385.44C271.359 385.897 270.594 386.126 269.679 386.126C268.951 386.126 268.298 385.963 267.719 385.636C267.15 385.309 266.702 384.847 266.375 384.25C266.049 383.643 265.885 382.943 265.885 382.15C265.885 381.357 266.044 380.661 266.361 380.064C266.679 379.467 267.122 379.009 267.691 378.692C268.27 378.365 268.933 378.202 269.679 378.202C270.407 378.202 271.051 378.361 271.611 378.678C272.171 378.995 272.601 379.434 272.899 379.994C273.207 380.545 273.361 381.17 273.361 381.87ZM272.045 381.604C272.045 381.119 271.938 380.703 271.723 380.358C271.509 380.003 271.215 379.737 270.841 379.56C270.477 379.373 270.071 379.28 269.623 379.28C268.979 379.28 268.429 379.485 267.971 379.896C267.523 380.307 267.267 380.876 267.201 381.604H272.045Z" fill="#919EAB"/>
<defs>
<linearGradient id="paint0_linear_1005_3659" x1="162.5" y1="-5.85185" x2="162.5" y2="379.2" gradientUnits="userSpaceOnUse">
<stop stop-opacity="0"/>
<stop offset="1"/>
</linearGradient>
</defs>
</svg>
